<?xml version="1.0" encoding="utf-8"?>
<!-- Generator: Adobe Illustrator 18.0.0, SVG Export Plug-In . SVG Version: 6.00 Build 0)  -->
<!DOCTYPE svg PUBLIC "-//W3C//DTD SVG 1.1//EN" "http://www.w3.org/Graphics/SVG/1.1/DTD/svg11.dtd">
<svg version="1.1" id="Layer_1" xmlns="http://www.w3.org/2000/svg" xmlns:xlink="http://www.w3.org/1999/xlink" x="0px" y="0px"
	 viewBox="0 0 425.9 90.8" enable-background="new 0 0 425.9 90.8" xml:space="preserve">
<g>
	<g>
		<defs>
			<rect id="SVGID_1_" width="425.9" height="90.8"/>
		</defs>
		<clipPath id="SVGID_2_">
			<use xlink:href="#SVGID_1_"  overflow="visible"/>
		</clipPath>
		<path clip-path="url(#SVGID_2_)" fill="#757679" d="M385.2,13.8c0,1.4-0.3,2.8-0.5,4.2c0.3,0,0.6-0.1,1-0.1c0.5,0,1,0.1,1.4,0.3
			c0.5,0.1,1,0.3,1.5,0.3c2,0,3.6-1.4,3.6-3.5c0-2.7-4.2-4.1-4.2-6.5c0-1,0.8-1.5,1.8-1.5c1.6,0,2.5,1.4,2.5,3h0.6
			c0-1.1,0.1-2.3,0.3-3.3c-0.3,0-0.6,0.1-0.9,0.1s-0.8-0.1-1.2-0.2c-0.4-0.1-0.8-0.1-1.3-0.1c-1.8,0-3.3,0.8-3.3,2.9
			c0,2.7,4.2,4.8,4.2,6.6c0,1.1-0.9,1.7-1.9,1.7c-1.9,0-3-2-2.9-3.9H385.2z M382.1,14.6c-0.8,1.2-2.4,2.5-3.9,2.5
			c-1.8,0-2.6-1.2-2.6-2.6c0-0.6,0-0.9,0.2-1.3c3.2-0.1,8-1.1,8-4.6c0-1.5-1.3-2.2-2.7-2.2c-3.3,0-7.5,4-7.5,8.4
			c0,2.4,1.5,3.7,3.5,3.7c2.4,0,4.4-1.6,5.5-3.6L382.1,14.6z M381.9,8.4c0,2.2-2.6,4.2-6,4.2c0.4-1.6,2.7-5.6,4.7-5.6
			C381.5,7,381.9,7.6,381.9,8.4 M362,8.6c0.5-0.2,1-0.3,1.2-0.3c0.5,0,0.5,0.3,0.7,1.3c0.2,1.4,0.2,2.5,0.2,3.3c0,1.7,0,4-0.8,5.6
			c4.3,0,9.1-7.6,9.1-10.5c0-0.9-0.4-1.3-1.4-1.3c-0.9,0-1.2,0.3-1.2,1.2c0,1.3,1.2,0.4,1.2,1.5c0,1.5-2.8,6.9-5.4,7.5
			c0.3-1.5,0.4-2.8,0.4-4.2c0-2-0.2-4.2-1-6c-0.9,0.5-2.2,1-3.2,1.3L362,8.6z M360.8,2c0-0.8-0.5-1.3-1.3-1.3
			c-0.9,0-1.3,0.7-1.3,1.5c0,0.7,0.4,1.2,1.2,1.2C360.3,3.5,360.8,2.8,360.8,2 M358.9,9.6c0.3-1.1,0.6-2.3,0.8-3.1
			c-1.3,0.5-2.9,0.9-4,1.2v0.6c0.3,0,0.6-0.1,0.9-0.1c0.4,0,0.7,0.1,0.7,0.4c0,0.2-0.4,1.8-0.5,2.1l-1.2,4.6
			c-0.3,1.2-0.4,1.8-0.4,2.1c0,0.8,0.4,1.1,1.1,1.1c1.4,0,2.5-1.5,3.5-3l-0.4-0.3c-0.4,0.6-1.2,1.7-1.8,1.7c-0.2,0-0.4-0.1-0.4-0.5
			c0-0.3,0.1-0.7,0.2-1.2L358.9,9.6z M347.1,3.2c0.3-1.3,0.5-1.7,1.7-1.7h0.6V1c-1.3,0.1-2.3,0.1-3.3,0.1c-1,0-2,0-3-0.1v0.6h0.4
			c0.9,0,1.2,0.2,1.2,0.6c0,0.4-0.1,1.1-0.5,2.6l-2.7,11.7c-0.2,0.9-0.5,1.2-1.5,1.2h-0.8v0.6c2-0.1,3.6-0.1,6.6-0.1
			c1.7,0,4.1,0,5.7,0.1c0.7-1.6,1.4-3.2,2.1-4.7H353c-1.7,3.3-3.7,3.8-7.1,3.8h-1.5c-0.3,0-0.5,0-0.5-0.3c0-0.3,0.4-1.9,0.5-2.3
			L347.1,3.2z M325.7,11.8c0-1.6,0.9-4.7,3-4.7c1,0,1.4,0.9,1.4,1.8c0,1.5-1,4.7-2.9,4.7C326.2,13.7,325.7,12.8,325.7,11.8
			 M323.9,20c0-1,0.7-2,1.2-2.5c4.4,1.1,5.6,1.7,5.6,2.9c0,1.5-2.1,2.3-3.3,2.3C325.6,22.7,323.9,22,323.9,20 M325.9,16.2
			c-0.8-0.2-1-0.3-1-0.6c0-0.2,0.2-0.5,0.8-1.1c0.4,0.1,0.9,0.2,1.4,0.2c2.5,0,4.7-2.4,4.7-4.8c0-0.8-0.3-1.6-0.9-2.2
			c0.2-0.2,0.4-0.4,0.6-0.4c0.4,0,0.3,1.1,1.2,1.1c0.5,0,0.8-0.4,0.8-1.1c0-0.6-0.5-1.1-1.1-1.1c-0.6,0-1.4,0.6-1.8,1.1
			c-0.6-0.5-1.3-0.8-2.2-0.8c-2.4,0-4.8,2.4-4.8,4.8c0,1.2,0.6,2.3,1.6,3c-1.4,0.8-2,1.4-2,2c0,0.5,0.3,0.9,1.4,1.2v0
			c-1.5,0.3-2.9,1.4-2.9,3c0,2.4,2.6,3,4.6,3c2.4,0,5.6-1.2,5.6-4c0-1.5-1.4-2.2-2.9-2.6L325.9,16.2z M309.6,8.2
			c0.3,0,0.6-0.1,0.9-0.1c0.4,0,0.7,0.1,0.7,0.4c0,0.2-0.4,1.8-0.5,2.1l-0.9,3.4c-0.4,1.4-0.7,2.9-1.1,4h2l1.3-5.4
			c3.5-3.6,4.8-4.7,5.6-4.7c0.4,0,0.6,0.2,0.6,0.6c0,0.6-0.4,2-0.6,2.4l-1.3,3.9c-0.3,0.9-0.5,1.7-0.5,2.3c0,0.9,0.5,1.2,1.3,1.2
			c1.4,0,2.5-1.5,3.5-3l-0.4-0.3c-0.4,0.6-1.2,1.7-1.8,1.7c-0.2,0-0.4-0.1-0.4-0.5c0-0.5,0.2-1.2,0.4-1.6l1.4-4.6
			c0.4-1.3,0.6-2.1,0.6-2.5c0-0.9-0.5-1.3-1.2-1.3c-1.3,0-3,1-6.8,5.2h0l0.5-2.1c0.3-1.1,0.6-2.3,0.8-3.1c-1.3,0.5-2.9,0.9-4,1.2
			V8.2z M307.5,2c0-0.8-0.5-1.3-1.3-1.3c-0.9,0-1.3,0.7-1.3,1.5c0,0.7,0.4,1.2,1.2,1.2C306.9,3.5,307.5,2.8,307.5,2 M305.6,9.6
			c0.3-1.1,0.6-2.3,0.8-3.1c-1.3,0.5-2.9,0.9-4,1.2v0.6c0.3,0,0.6-0.1,0.9-0.1c0.4,0,0.7,0.1,0.7,0.4c0,0.2-0.4,1.8-0.5,2.1
			l-1.2,4.6c-0.3,1.2-0.4,1.8-0.4,2.1c0,0.8,0.4,1.1,1.1,1.1c1.4,0,2.5-1.5,3.5-3l-0.4-0.3c-0.4,0.6-1.2,1.7-1.8,1.7
			c-0.2,0-0.4-0.1-0.4-0.5c0-0.3,0.1-0.7,0.2-1.2L305.6,9.6z M299.2,14.8c-0.8,1.4-2.2,2.3-3.6,2.3c-1.9,0-2.4-1.5-2.4-2.7
			c0-2.4,1.4-7.4,4.6-7.4c1.1,0,1.4,0.4,1.4,0.9c0,0.5-0.4,0.8-0.4,1.4c0,0.6,0.4,0.8,1.1,0.8c1.1,0,1.4-0.4,1.4-1.5
			c0-1.5-1.4-2.2-3.1-2.2c-3.9,0-7,4.2-7,7.7c0,2.5,1.2,4.4,3.7,4.4c2.3,0,4.1-1.7,5-3.5L299.2,14.8z M278,8.2
			c0.3,0,0.6-0.1,0.9-0.1c0.4,0,0.7,0.1,0.7,0.4c0,0.2-0.4,1.8-0.5,2.1l-0.9,3.4c-0.4,1.4-0.7,2.9-1.1,4h2l1.3-5.4
			c3.5-3.6,4.8-4.7,5.6-4.7c0.4,0,0.6,0.2,0.6,0.6c0,0.6-0.4,2-0.6,2.4l-1.3,3.9c-0.3,0.9-0.5,1.7-0.5,2.3c0,0.9,0.5,1.2,1.3,1.2
			c1.4,0,2.5-1.5,3.5-3l-0.4-0.3c-0.4,0.6-1.2,1.7-1.8,1.7c-0.2,0-0.4-0.1-0.4-0.5c0-0.5,0.2-1.2,0.4-1.6l1.4-4.6
			c0.4-1.3,0.6-2.1,0.6-2.5c0-0.9-0.5-1.3-1.2-1.3c-1.3,0-3,1-6.8,5.2h0l0.5-2.1c0.3-1.1,0.6-2.3,0.8-3.1c-1.3,0.5-2.9,0.9-4,1.2
			V8.2z M266.3,14.8c0-2.1,2.1-7.8,4.7-7.8c1.2,0,1.7,1.4,1.7,2.4c0,3.2-3.1,7.6-4.9,7.6C266.6,16.9,266.3,16.1,266.3,14.8
			 M273.1,8.6L273.1,8.6c-0.2-1.4-1-2.1-2.2-2.1c-3.7,0-6.7,5.9-6.7,9.1c0,1.3,0.7,3,2.3,3c2.5,0,4.1-3,4.9-4.1h0
			c-0.5,1.5-0.8,2.4-0.8,3c0,0.7,0.4,1.2,1.1,1.2c1.1,0,2.2-1.2,3.3-2.8l-0.4-0.3c-0.6,0.9-1.3,1.7-1.8,1.7c-0.3,0-0.4-0.2-0.4-0.4
			c0-0.2,0.1-0.6,0.4-1.4l2.6-8.8h-1.8L273.1,8.6z M256,3.4c0.3-1.1,0.6-2.3,0.9-3.4c-1,0.5-2.8,0.9-4,1.2v0.6
			c0.2,0,0.5-0.1,0.8-0.1c0.4,0,0.7,0,0.7,0.4c0,0.3-0.2,1-0.2,1.3l-2.6,10.7c-0.3,1.4-0.7,2.9-1.1,4h2l1.3-5.4
			c3.5-3.6,4.8-4.7,5.6-4.7c0.4,0,0.6,0.2,0.6,0.6c0,0.6-0.4,2-0.6,2.4l-1.3,3.9c-0.3,0.9-0.5,1.7-0.5,2.3c0,0.9,0.5,1.2,1.3,1.2
			c1.4,0,2.5-1.5,3.5-3l-0.4-0.3c-0.4,0.6-1.2,1.7-1.8,1.7c-0.2,0-0.4-0.1-0.4-0.5c0-0.5,0.2-1.2,0.4-1.6l1.4-4.6
			c0.4-1.3,0.6-2.1,0.6-2.5c0-0.9-0.5-1.3-1.2-1.3c-1.3,0-3,1-6.8,5.2l0,0L256,3.4z M237.6,8.2c0.3,0,0.6-0.1,0.9-0.1
			c0.4,0,0.7,0.1,0.7,0.4c0,0.2-0.4,1.8-0.5,2.1l-0.9,3.4c-0.4,1.4-0.7,2.9-1.1,4h2l1.3-5.4c3.5-3.6,4.8-4.7,5.6-4.7
			c0.4,0,0.6,0.2,0.6,0.6c0,0.6-0.4,2-0.6,2.4l-1.3,3.9c-0.3,0.9-0.5,1.7-0.5,2.3c0,0.9,0.5,1.2,1.3,1.2c1.4,0,2.5-1.5,3.5-3
			l-0.4-0.3c-0.4,0.6-1.2,1.7-1.8,1.7c-0.2,0-0.4-0.1-0.4-0.5c0-0.5,0.2-1.2,0.4-1.6l1.4-4.6c0.4-1.3,0.6-2.1,0.6-2.5
			c0-0.9-0.5-1.3-1.2-1.3c-1.3,0-3,1-6.8,5.2h0l0.5-2.1c0.3-1.1,0.6-2.3,0.8-3.1c-1.3,0.5-2.9,0.9-4,1.2V8.2z M222.9,16.5
			c-0.2,0.9-0.5,1.2-1.5,1.2h-0.3v0.6c2.3-0.1,4.4-0.1,6.5-0.1c2.1,0,4.2,0,6.3,0.1c0.1-0.9,0.6-2.8,1.1-4.2h-0.6
			c-1.1,3.5-4.4,3.3-7.2,3.3h-1.2c-0.3,0-0.5,0-0.5-0.3c0-0.3,0.4-1.9,0.5-2.3l1.1-5.1h3.8c1.1,0,1.1,0.5,1.1,0.9
			c0,0.4-0.1,0.9-0.2,1.2h0.6c0.1-0.7,0.9-4.2,1.2-5h-0.6c-0.3,1.4-0.7,2.1-2.7,2.1h-3l1.6-6.8c0.1-0.3,0.2-0.4,0.6-0.4h2.6
			c2.3,0,3.3,0.2,3.3,3h0.6c0-0.7,0.2-2.7,0.5-3.9c-1.9,0.1-3.9,0.1-5.9,0.1c-2,0-4,0-5.8-0.1v0.6h0.4c0.8,0,1.1,0.2,1.1,0.6
			c0,0.5-0.1,1.1-0.4,2.6L222.9,16.5z M207.7,21.6c1.8-0.6,4-2,4-4.2c0-1.1-0.5-1.7-1.3-1.7c-0.9,0-1.5,0.7-1.5,1.6
			c0,0.5,0.2,1,0.8,1c0.3,0,0.6,0,0.8-0.3h0c-0.4,1.7-1.4,2.6-3,3.1L207.7,21.6z M198.9,13.8c0,1.4-0.3,2.8-0.5,4.2
			c0.3,0,0.6-0.1,1-0.1c0.5,0,1,0.1,1.4,0.3c0.5,0.1,1,0.3,1.5,0.3c2,0,3.6-1.4,3.6-3.5c0-2.7-4.2-4.1-4.2-6.5c0-1,0.8-1.5,1.8-1.5
			c1.6,0,2.5,1.4,2.5,3h0.6c0-1.1,0.1-2.3,0.3-3.3c-0.3,0-0.6,0.1-0.9,0.1c-0.3,0-0.8-0.1-1.2-0.2c-0.4-0.1-0.8-0.1-1.3-0.1
			c-1.8,0-3.3,0.8-3.3,2.9c0,2.7,4.2,4.8,4.2,6.6c0,1.1-0.9,1.7-1.9,1.7c-1.9,0-3-2-2.9-3.9H198.9z M188.2,12.8
			c0.6-0.7,4.2-4.8,5.2-4.8c0.4,0,0.7,0.2,0.7,0.6c0,0.6-0.4,2-0.6,2.4l-1.3,3.9c-0.3,0.9-0.5,1.7-0.5,2.3c0,0.9,0.5,1.2,1.3,1.2
			c1.4,0,2.5-1.5,3.5-3l-0.4-0.3c-0.4,0.6-1.2,1.7-1.8,1.7c-0.2,0-0.4-0.1-0.4-0.5c0-0.4,0.2-1.2,0.4-1.6l1.4-4.6
			c0.4-1.3,0.6-2.1,0.6-2.5c0-0.9-0.5-1.3-1.2-1.3c-2.4,0-5.2,3.6-6.5,5.2h0c0.3-1.2,0.9-3,0.9-3.9c0-0.9-0.5-1.3-1.2-1.3
			c-2.4,0-4.9,3.8-6,5.1h0l0.5-2c0.3-1.1,0.6-2.3,0.8-3.1c-1.3,0.5-2.9,0.9-4,1.2v0.6c0.3,0,0.6-0.1,0.9-0.1c0.4,0,0.7,0.1,0.7,0.4
			c0,0.2-0.4,1.8-0.5,2.1l-0.9,3.4c-0.4,1.4-0.7,2.9-1.1,4h2l1.3-5.4c0.7-0.8,3.9-4.8,4.8-4.8c0.4,0,0.7,0.2,0.7,0.6
			c0,0.5-0.1,1-0.3,2.2l-1.2,5.2c-0.2,0.7-0.4,1.5-0.6,2.1h2L188.2,12.8z M167.6,14.8c0-2.1,2.1-7.8,4.7-7.8c1.2,0,1.7,1.4,1.7,2.4
			c0,3.2-3.1,7.6-4.9,7.6C167.9,16.9,167.6,16.1,167.6,14.8 M174.4,8.6L174.4,8.6c-0.2-1.4-1-2.1-2.2-2.1c-3.7,0-6.7,5.9-6.7,9.1
			c0,1.3,0.7,3,2.3,3c2.5,0,4.1-3,4.9-4.1h0c-0.5,1.5-0.8,2.4-0.8,3c0,0.7,0.4,1.2,1.1,1.2c1.1,0,2.2-1.2,3.3-2.8l-0.4-0.3
			c-0.6,0.9-1.3,1.7-1.8,1.7c-0.3,0-0.4-0.2-0.4-0.4c0-0.2,0.1-0.6,0.4-1.4l2.6-8.8h-1.8L174.4,8.6z M163,14.6
			c-0.8,1.2-2.4,2.5-3.9,2.5c-1.8,0-2.6-1.2-2.6-2.6c0-0.6,0-0.9,0.2-1.3c3.2-0.1,8-1.1,8-4.6c0-1.5-1.3-2.2-2.7-2.2
			c-3.3,0-7.5,4-7.5,8.4c0,2.4,1.5,3.7,3.5,3.7c2.4,0,4.4-1.6,5.5-3.6L163,14.6z M162.8,8.4c0,2.2-2.6,4.2-6,4.2
			c0.4-1.6,2.7-5.6,4.7-5.6C162.4,7,162.8,7.6,162.8,8.4 M147.1,14.1c-0.4,1.4-0.7,2.9-1.1,4h2l1.3-5.6c1.1-1.6,2.5-3.8,2.9-3.8
			s0.3,0.8,1,0.8c0.9,0,1-1.1,1-1.8c0-0.8-0.1-1.3-0.9-1.3c-1.1,0-1.9,1.6-3.5,4.4h0c0.3-1.3,0.7-2.8,1.2-4.4
			c-1.3,0.5-2.9,0.9-4,1.2v0.6c0.3,0,0.6-0.1,0.9-0.1c0.4,0,0.7,0.1,0.7,0.4c0,0.2-0.4,1.8-0.5,2.1L147.1,14.1z M128.2,16.5
			c-0.2,0.9-0.5,1.2-1.5,1.2h-0.3v0.6c0.8-0.1,1.7-0.1,2.5-0.1h4c6.4,0,11.6-4.1,11.6-10.7c0-4.7-3-6.4-7.3-6.4
			c-1.5,0-3,0.1-4.5,0.1c-0.9,0-1.8,0-2.8-0.1v0.6h0.4c0.9,0,1.2,0.2,1.2,0.6c0,0.4-0.1,1.1-0.5,2.6L128.2,16.5z M134,2.2
			c0.1-0.4,0.3-0.5,1.5-0.5c4.4,0,6.4,1.8,6.4,6c0,4.6-3.2,9.7-8.8,9.7c-1.4,0-2.1,0-2.1-1c0-0.6,0.1-1.1,0.5-2.8L134,2.2z
			 M112.3,11.8c0-1.6,0.9-4.7,3-4.7c1,0,1.4,0.9,1.4,1.8c0,1.5-1,4.7-2.9,4.7C112.8,13.7,112.3,12.8,112.3,11.8 M110.5,20
			c0-1,0.7-2,1.2-2.5c4.4,1.1,5.6,1.7,5.6,2.9c0,1.5-2.1,2.3-3.3,2.3C112.3,22.7,110.5,22,110.5,20 M112.6,16.2
			c-0.8-0.2-1-0.3-1-0.6c0-0.2,0.2-0.5,0.8-1.1c0.4,0.1,0.9,0.2,1.4,0.2c2.5,0,4.7-2.4,4.7-4.8c0-0.8-0.3-1.6-0.9-2.2
			c0.2-0.2,0.4-0.4,0.6-0.4c0.4,0,0.3,1.1,1.2,1.1c0.5,0,0.8-0.4,0.8-1.1c0-0.6-0.5-1.1-1.1-1.1c-0.6,0-1.4,0.6-1.8,1.1
			c-0.6-0.5-1.3-0.8-2.2-0.8c-2.4,0-4.8,2.4-4.8,4.8c0,1.2,0.6,2.3,1.6,3c-1.4,0.8-2,1.4-2,2c0,0.5,0.3,0.9,1.4,1.2v0
			c-1.5,0.3-2.9,1.4-2.9,3c0,2.4,2.6,3,4.6,3c2.4,0,5.6-1.2,5.6-4c0-1.5-1.4-2.2-2.9-2.6L112.6,16.2z M96.2,8.2
			c0.3,0,0.6-0.1,0.9-0.1c0.4,0,0.7,0.1,0.7,0.4c0,0.2-0.4,1.8-0.5,2.1l-0.9,3.4c-0.4,1.4-0.7,2.9-1.1,4h2l1.3-5.4
			c3.5-3.6,4.8-4.7,5.6-4.7c0.4,0,0.6,0.2,0.6,0.6c0,0.6-0.4,2-0.6,2.4L103,15c-0.3,0.9-0.5,1.7-0.5,2.3c0,0.9,0.5,1.2,1.3,1.2
			c1.4,0,2.5-1.5,3.5-3l-0.4-0.3c-0.4,0.6-1.2,1.7-1.8,1.7c-0.2,0-0.4-0.1-0.4-0.5c0-0.5,0.2-1.2,0.4-1.6l1.4-4.6
			c0.4-1.3,0.6-2.1,0.6-2.5c0-0.9-0.5-1.3-1.2-1.3c-1.3,0-3,1-6.8,5.2h0l0.5-2.1c0.3-1.1,0.6-2.3,0.8-3.1c-1.3,0.5-2.9,0.9-4,1.2
			V8.2z M94.1,2c0-0.8-0.5-1.3-1.3-1.3c-0.9,0-1.3,0.7-1.3,1.5c0,0.7,0.4,1.2,1.2,1.2C93.6,3.5,94.1,2.8,94.1,2 M92.3,9.6
			c0.3-1.1,0.6-2.3,0.8-3.1c-1.3,0.5-2.9,0.9-4,1.2v0.6c0.3,0,0.6-0.1,0.9-0.1c0.4,0,0.7,0.1,0.7,0.4c0,0.2-0.4,1.8-0.5,2.1L89,15.3
			c-0.3,1.2-0.4,1.8-0.4,2.1c0,0.8,0.4,1.1,1.1,1.1c1.4,0,2.5-1.5,3.5-3l-0.4-0.3c-0.4,0.6-1.2,1.7-1.8,1.7c-0.2,0-0.4-0.1-0.4-0.5
			c0-0.3,0.1-0.7,0.2-1.2L92.3,9.6z M84.1,8.3L84.1,8.3c-0.4-1.2-1.1-1.8-2.3-1.8c-3.5,0-6.5,5.4-6.5,8.6c0,1.7,0.6,3.5,2.6,3.5
			c2.4,0,3.7-2.2,4.7-3.7l0,0c-0.2,0.3-0.6,1.6-0.6,2.5c0,0.8,0.4,1.1,1.1,1.1c1.4,0,2.5-1.5,3.5-3l-0.4-0.3
			c-0.4,0.6-1.2,1.7-1.8,1.7c-0.2,0-0.4-0.1-0.4-0.5c0-0.3,0.1-0.9,0.2-1.2l2.9-11.8C87.4,2.3,87.7,1.2,88,0c-1,0.5-2.8,0.9-4,1.2
			v0.6c0.2,0,0.5-0.1,0.8-0.1c0.4,0,0.7,0,0.7,0.4c0,0.3-0.2,1-0.2,1.3L84.1,8.3z M83.6,9.7c0,2.8-2,7.4-4.6,7.4
			c-1.4,0-1.6-1.4-1.6-2.4c0-3,1.8-7.5,4.5-7.5C82.8,7.2,83.6,7.6,83.6,9.7 M74.1,3.4C74.4,2.3,74.7,1.2,75,0c-1,0.5-2.8,0.9-4,1.2
			v0.6c0.2,0,0.5-0.1,0.8-0.1c0.4,0,0.7,0,0.7,0.4c0,0.3-0.2,1-0.2,1.3l-2.9,11.9c-0.3,1.2-0.4,1.8-0.4,2.1c0,0.8,0.4,1.1,1.1,1.1
			c1.4,0,2.5-1.5,3.5-3l-0.4-0.3c-0.4,0.6-1.2,1.7-1.8,1.7c-0.2,0-0.4-0.1-0.4-0.5c0-0.3,0.1-0.9,0.2-1.2L74.1,3.4z M67.4,2
			c0-0.8-0.5-1.3-1.3-1.3c-0.9,0-1.3,0.7-1.3,1.5c0,0.7,0.4,1.2,1.2,1.2C66.9,3.5,67.4,2.8,67.4,2 M65.6,9.6
			c0.3-1.1,0.6-2.3,0.8-3.1c-1.3,0.5-2.9,0.9-4,1.2v0.6c0.3,0,0.6-0.1,0.9-0.1c0.4,0,0.7,0.1,0.7,0.4c0,0.2-0.4,1.8-0.5,2.1
			l-1.2,4.6C62,16.6,62,17.1,62,17.4c0,0.8,0.4,1.1,1.1,1.1c1.4,0,2.5-1.5,3.5-3l-0.4-0.3c-0.4,0.6-1.2,1.7-1.8,1.7
			c-0.2,0-0.4-0.1-0.4-0.5c0-0.3,0.1-0.7,0.2-1.2L65.6,9.6z M48.6,14.5c-0.1,0.5-0.4,1.7-0.4,2.4c0,1,0.7,1.7,1.8,1.7
			c2.8,0,5.3-3.8,6.1-5.2h0c-0.4,1.2-1,3.1-1,4.1c0,0.8,0.4,1.1,1.1,1.1c1.4,0,2.5-1.5,3.5-3l-0.4-0.3c-0.4,0.6-1.2,1.7-1.8,1.7
			c-0.2,0-0.4-0.1-0.4-0.5c0-0.3,0.1-0.9,0.2-1.2l1.4-5.7c0.3-1.1,0.6-2.1,0.8-2.8h-1.8L56.4,12c-2.4,3.6-3.9,4.9-5.3,4.9
			c-0.7,0-0.9-0.5-0.9-1.1c0-0.5,0.3-1.4,0.4-1.8l1.2-4.4c0.3-1.1,0.6-2.3,0.8-3.1c-1.3,0.5-2.9,0.9-4,1.2v0.6
			c0.3,0,0.6-0.1,0.9-0.1c0.4,0,0.7,0.1,0.7,0.4c0,0.2-0.4,1.8-0.5,2.1L48.6,14.5z M39.8,2c0-0.2,0.2-0.4,0.7-0.4
			c2,0,3.5,0.4,3.5,2.7c0,2.9-2.1,4.3-5,4.3c-0.5,0-0.6-0.1-0.6-0.4c0-0.2,0-0.5,0.1-1L39.8,2z M38,9.9c0.1-0.4,0.3-0.4,1.3-0.4
			c2.3,0,3.8,0.8,3.8,3.1c0,3.1-1.8,4.9-4.8,4.9c-0.8,0-1.8,0-1.8-0.6c0-0.5,0.2-1.5,0.4-1.9L38,9.9z M45.8,12.8
			c0-2.4-1.8-3.6-4-3.8V8.9c2.7-0.4,4.8-1.9,4.8-4.6c0-2.4-1.9-3.3-4.8-3.3c-1.3,0-2.4,0.1-3.6,0.1c-0.9,0-1.8,0-2.7-0.1v0.6H36
			c0.9,0,1.2,0.2,1.2,0.6c0,0.4-0.1,1.1-0.5,2.6l-2.3,10.1c-0.5,2.4-0.6,2.8-1.6,2.8h-0.3v0.6c0.7-0.1,1.5-0.1,2.2-0.1h3.9
			C43.4,18.1,45.8,15.5,45.8,12.8"/>
	</g>
	<g>
		<path fill="#022169" d="M4.9,38.7c0-4.5-0.7-5-2.2-5.4c-1.7-0.5-2.2-0.5-2.2-1.2c0-0.9,0.6-1.1,1.7-1.1c2.2,0,4.5,0.4,6.7,0.4
			s4.5-0.4,6.7-0.4c11.5,0,19,4.3,19,15c0,11.2-9.1,16.8-18.2,16.8c-4.7,0-8-0.4-9.5-0.4c-1.3,0-2.8,0.4-4.2,0.4
			c-0.8,0-1.4,0-1.4-0.5c0-0.7,0.9-0.9,1.6-1.2c1.7-0.6,1.8-3.2,1.8-4.9V38.7z M11.8,55.9c0,3.9,1.6,4.6,5.4,4.6
			c6.7,0,10-6.9,10-12.8c0-6.9-3.5-14.6-11.8-14.6c-2.9,0-3.6,1.3-3.6,3.7V55.9z"/>
		<path fill="#022169" d="M54.2,58c0,1.2,0,1.8,0.9,1.8c0.5,0,1.2-0.2,1.6-0.2c0.5,0,0.8,0.1,0.8,0.5c0,0.8-2.2,2.7-5.5,2.7
			c-1.4,0-3.2-1.1-3.7-2.5c-1.9,1.7-4.7,2.8-7.2,2.8c-2.8,0-4.9-2-4.9-4.8c0-6.7,7.1-6.6,11.9-8v-2.6c0-2.1-1.7-3.9-3.7-3.9
			c-1.2,0-1.4,0.4-1.4,2.1c0,0.6,0,1.3-0.4,1.9c-0.5,0.8-3.2,1.3-4.1,1.3c-0.9,0-1.6-0.3-1.6-1.5c0-5,6.8-5.7,10.2-5.7
			c5.3,0,7.2,2.8,7.2,7.8V58z M48,52.5c-2.6,0-5.7,1.9-5.7,4.7c0,1.7,0.7,2.9,2.6,2.9c1,0,3.1-0.5,3.1-1.9V52.5z"/>
		<path fill="#022169" d="M68.8,61.7c-0.4,0.6-1.1,1.6-1.5,1.6c-0.3,0-0.9-0.7-1.2-1.4l-8.3-15.8c-1.4-2.3-2.8-2.1-2.8-2.8
			c0-0.6,0.3-0.8,2-0.8c2.1,0,3.6,0.4,5.1,0.4c1.5,0,3.1-0.4,4.6-0.4c1,0,1.6,0.1,1.6,0.8c0,0.5-0.7,0.9-1.6,1.1
			c-1.1,0.2-1.5,0.9-1.5,1.6c0,0.7,0.2,1.5,0.6,2.3l3.5,6.4c0.2,0.4,0.5,0.9,0.8,0.9c0.5,0,0.7-0.6,0.9-1l3.4-5.7
			c0.5-0.7,0.6-1.4,0.6-2.5c0-1-1-1.8-1.8-2c-0.9-0.2-1.8-0.3-1.8-1.1c0-0.5,0.3-0.8,1.5-0.8c1.1,0,2.2,0.4,3.3,0.4
			c1.1,0,2.1-0.4,3.2-0.4c0.9,0,1.1,0.2,1.1,0.8c0,0.6-0.5,0.7-0.8,1.1c-0.5,0.5-0.9,1-1.5,2L68.8,61.7z"/>
		<path fill="#022169" d="M83.9,47.5c0-0.8-0.6-1.1-1.3-1.2c-1.2-0.1-1.3-0.4-1.3-1c0-0.7,0.9-1,1.7-1.1c1.3-0.1,4-1.1,5.2-1.7
			c0.4-0.2,0.9-0.4,1.4-0.4c0.4,0,0.5,0.6,0.5,2.7v13.4c0,2,0.9,2.5,1.8,2.8c0.9,0.3,1.8,0.4,1.8,1.1c0,0.7-0.6,0.7-1.1,0.7
			c-1.7,0-3.4-0.4-5.1-0.4c-1.7,0-3.4,0.4-5.1,0.4c-0.8,0-1-0.4-1-0.7c0-0.7,0.5-0.9,1.3-1.1c0.6-0.2,1.3-0.6,1.3-1.7V47.5z
			 M90.5,34.8c0,1.2-2.3,3.9-3.6,3.9c-1.3,0-3.6-2.7-3.6-3.9c0-1.3,2.3-4.1,3.6-4.1C88.2,30.7,90.5,33.5,90.5,34.8z"/>
		<path fill="#022169" d="M107.7,33.9c0-1.1-0.6-1.2-1.3-1.2c-0.7,0-1.3-0.1-1.3-1c0-0.7,0.9-1,1.7-1.1c1.4-0.1,3.9-1.1,5.2-1.7
			c0.4-0.2,0.9-0.4,1.4-0.4c0.3,0,0.5,0.5,0.5,2.8v26.8c0,1.4,0.7,1.6,1.1,1.7c0.8,0.1,1.8,0.2,1.8,1c0,0.8-1,1-1.5,1.1
			c-0.5,0.1-2.4,0.2-4.8,0.7c-1.5,0.4-2.6,0.7-2.8,0.7c-0.2,0-0.5-0.1-0.5-0.5c0-0.2,0-0.5,0.1-1l0.5-2.3h-0.1
			c-1.4,2-3.7,3.7-6.3,3.7c-5.8,0-8.4-4.7-8.4-9.1c0-7.6,5.2-12,10.2-12c1.6,0,3.1,0.4,4.5,1V33.9z M107.7,49.6c0-3.2-1-5.6-4.3-5.6
			c-4,0-4.9,4-4.9,6.8c0,3.4,1.7,8.5,5.9,8.5c2.9,0,3.3-2.2,3.3-4.7V49.6z"/>
	</g>
	<g>
		<path fill="#022169" d="M126.4,35.3c-0.5-1.6-1.4-2-2-2.4c-0.5-0.3-1.1-0.4-1.1-1.1c0-0.7,0.6-0.7,1.2-0.7c1.8,0,3.6,0.4,5.4,0.4
			c1.8,0,3.6-0.4,5.4-0.4c0.8,0,1.2,0,1.2,0.7c0,0.7-0.7,0.9-1.4,1.1c-1.3,0.4-1.5,1.2-1.5,2.1c0,0.4,0.5,1.3,1,2.9l5.2,15
			c0.1,0.4,0.3,0.8,0.4,0.8c0.1,0,0.4-0.5,0.5-1l4.6-10.1l-2.5-7.3c-0.5-1.6-1.4-2-2-2.4c-0.5-0.3-1.1-0.4-1.1-1.1
			c0-0.7,0.6-0.7,1.2-0.7c1.8,0,3.6,0.4,5.4,0.4c1.8,0,3.6-0.4,5.4-0.4c0.8,0,1.2,0,1.2,0.7c0,0.7-0.7,0.9-1.4,1.1
			c-1.3,0.4-1.4,1.3-1.4,1.9c0,0.7,0.7,2.3,1,3.1l4.9,13.8c0.2,0.6,0.3,0.9,0.5,0.9c0.3,0,0.6-0.8,0.9-1.6l4.2-11.9
			c0.5-1.3,0.7-2.5,0.7-3.5c0-2-2.5-1.8-3.5-2.4c-0.8-0.5-1.3-0.9-1.3-1.3c0-0.7,0.5-0.7,1-0.7c1.6,0,3.1,0.4,4.7,0.4
			c1.6,0,3.1-0.4,4.7-0.4c0.4,0,1.1,0,1.1,0.7c0,0.7-1,0.7-1.9,1.6c-1.3,1.2-1.5,1.9-2.7,5l-8.6,22.2c-1,2.4-1.3,2.7-1.8,2.7
			c-0.5,0-1-0.2-1.6-1.9l-5.2-14.5c-0.3-0.8-0.5-1.2-0.6-1.2c-0.2,0-0.4,0.5-0.8,1.4l-6.4,13.8c-1,2.2-1.3,2.5-1.9,2.5
			c-0.6,0-0.8-0.3-1.5-2.1L126.4,35.3z"/>
		<path fill="#022169" d="M168,51.8v1.7c0,3.6,3.7,6.5,7.2,6.5c3.7,0,6.2-2.6,6.5-2.6c0.2,0,0.5,0.3,0.5,0.5c0,1.6-4.2,5.3-9.9,5.3
			c-6.4,0-10.5-3.5-10.5-10.1c0-6,4.2-11,10.3-11c4.4,0,10,3.1,10,8.1c0,1.1-0.4,1.5-2.5,1.5H168z M175.6,50c0.2,0,0.3-0.8,0.3-1.1
			c0-2.7-1.5-4.8-4-4.8c-2.8,0-4.1,3-4.1,5.1c0,0.7,0.5,0.9,1.1,0.9H175.6z"/>
		<path fill="#022169" d="M190,51.8v1.7c0,3.6,3.7,6.5,7.2,6.5c3.7,0,6.2-2.6,6.5-2.6c0.2,0,0.5,0.3,0.5,0.5c0,1.6-4.2,5.3-9.9,5.3
			c-6.4,0-10.5-3.5-10.5-10.1c0-6,4.2-11,10.3-11c4.4,0,10,3.1,10,8.1c0,1.1-0.4,1.5-2.5,1.5H190z M197.7,50c0.2,0,0.3-0.8,0.3-1.1
			c0-2.7-1.5-4.8-4-4.8c-2.8,0-4.1,3-4.1,5.1c0,0.7,0.5,0.9,1.1,0.9H197.7z"/>
		<path fill="#022169" d="M206.4,33.8c0-0.8-0.8-1-1.4-1.1c-0.7-0.2-1.4-0.2-1.4-1c0-0.7,0.9-1,1.8-1.1c1.4-0.2,4.2-1.1,5.4-1.7
			c0.4-0.1,1-0.4,1.3-0.4c0.3,0,0.5,0.2,0.5,2.2v20.5l6.7-4.7c0.6-0.4,1.4-1.1,1.4-1.6c0-0.4-0.6-0.5-1.1-0.5
			c-0.8,0-1.3-0.5-1.3-1.1c0-0.4,0.2-0.7,1.1-0.7c1.4,0,2.8,0.2,4.3,0.2c1.4,0,2.8-0.2,4.3-0.2c0.9,0,1.2,0.2,1.2,0.5
			c0,0.8-0.4,1.2-1.4,1.4c-1.1,0.2-2.5,0.6-4.8,2l-3.1,1.9l6.3,10.3c0.6,1.1,1.4,1.7,2.3,2.5c1.1,0.9,2.7,0.1,2.7,1
			c0,0.5-0.2,0.7-1.4,0.7c-1.1,0-2.3-0.2-3.4-0.2c-1.1,0-2.3,0.2-3.4,0.2c-1.1,0-1.4-0.2-1.8-0.8l-5.5-8.4c-0.3-0.4-0.5-0.8-0.7-0.8
			c-0.1,0-0.3,0.2-0.5,0.2l-1.8,1v4.2c0,2,1.1,2.5,2,2.8c0.9,0.3,1.9,0.4,1.9,1.1c0,0.5-0.3,0.7-1.2,0.7c-1.8,0-3.5-0.4-5.3-0.4
			c-1.7,0-3.5,0.4-5.3,0.4c-0.7,0-1.1-0.2-1.1-0.7c0-0.7,0.5-0.9,1.3-1.1c0.6-0.1,1.4-0.6,1.4-1.7V33.8z"/>
		<path fill="#022169" d="M233.4,33.9c0-0.8-0.6-1.1-1.3-1.2c-0.7,0-1.3-0.1-1.3-1c0-0.7,0.9-1,1.7-1.1c1.3-0.2,4-1.1,5.2-1.7
			c0.4-0.2,0.9-0.4,1.4-0.4c0.3,0,0.5,0.6,0.5,2.7v27c0,2,0.9,2.5,1.8,2.8c0.9,0.3,1.8,0.4,1.8,1.1c0,0.7-0.6,0.7-1.1,0.7
			c-1.7,0-3.4-0.4-5.1-0.4c-1.7,0-3.4,0.4-5.1,0.4c-0.5,0-1,0-1-0.7c0-0.7,0.5-0.9,1.3-1.1c0.6-0.2,1.3-0.6,1.3-1.7V33.9z"/>
		<path fill="#022169" d="M247.7,51.8v1.7c0,3.6,3.7,6.5,7.2,6.5c3.7,0,6.2-2.6,6.5-2.6c0.2,0,0.5,0.3,0.5,0.5
			c0,1.6-4.2,5.3-9.9,5.3c-6.4,0-10.5-3.5-10.5-10.1c0-6,4.2-11,10.3-11c4.4,0,10,3.1,10,8.1c0,1.1-0.4,1.5-2.5,1.5H247.7z
			 M255.4,50c0.2,0,0.3-0.8,0.3-1.1c0-2.7-1.5-4.8-4-4.8c-2.8,0-4.1,3-4.1,5.1c0,0.7,0.5,0.9,1.1,0.9H255.4z"/>
		<path fill="#022169" d="M278.3,50.6c0.6-1.2,1.3-2.5,1.3-3.7c0-0.9-0.5-1.5-1.7-2.3c-0.6-0.4-1.7-0.6-1.7-1.3
			c0-0.5,0.2-0.7,1.5-0.7c1.1,0,2.1,0.4,3.2,0.4c1.1,0,2.1-0.4,3.2-0.4c1,0,1.2,0.1,1.2,0.7c0,0.5-0.7,0.6-1.4,1.3
			c-0.8,0.8-1.6,2.3-2.2,3.6l-10.4,21.2c-1,2.1-1.2,2.2-3.2,2.2c-0.8,0-1.5-0.3-1.5-0.8c0-0.9,4.4-5.3,5.3-7.3
			c0.1-0.3,0.2-0.6,0.2-0.9c0-0.6-0.3-1.3-0.7-1.9L262.9,46c-0.3-0.5-0.5-0.9-1-1.3c-0.4-0.3-1.4-0.6-1.4-1.3c0-0.6,0.4-0.7,1.2-0.7
			c1.7,0,3.5,0.4,5.3,0.4c1.8,0,3.5-0.4,5.3-0.4c0.5,0,0.7,0.2,0.7,0.7c0,0.9-0.7,1.1-2.1,1.3c-0.3,0-0.5,0.4-0.5,0.8
			c0,0.4,0.1,1,0.4,1.5l4.1,7.5c0.3,0.5,0.5,0.8,0.7,0.8c0.2,0,0.4-0.2,0.6-0.7L278.3,50.6z"/>
	</g>
	<g>
		<path fill="#022169" d="M315.9,44.4c1.6,0,2.2-0.4,2.2-1.4v-6.3c0-2.8-1.6-3.7-3.5-3.8c-0.6,0-1-0.4-1-1.1c0-0.7,1.3-0.7,2.7-0.7
			c1.8,0,3.7,0.4,5.5,0.4s3.7-0.4,5.5-0.4c0.6,0,1.3,0,1.3,0.7c0,0.7-0.8,1-1.2,1.1c-1.4,0.4-2.3,2-2.3,3.8v20.6
			c0,2.8,1.6,3.7,3.5,3.8c0.6,0,1,0.4,1,1.1c0,0.7-1.3,0.7-2.7,0.7c-1.8,0-3.7-0.4-5.5-0.4s-3.7,0.4-5.5,0.4c-0.6,0-1.3,0-1.3-0.7
			c0-0.7,0.8-1,1.2-1.1c1.8-0.5,2.3-2.3,2.3-3.8v-8.8c0-1.5-0.3-1.6-1.6-1.6h-11.2c-0.8,0-0.9,0.8-0.9,1.5v8.9
			c0,2.8,1.6,3.7,3.5,3.8c0.6,0,1,0.4,1,1.1c0,0.7-1.3,0.7-2.7,0.7c-1.8,0-3.7-0.4-5.5-0.4c-1.8,0-3.7,0.4-5.5,0.4
			c-0.6,0-1.3,0-1.3-0.7c0-0.7,0.8-1,1.2-1.1c1.8-0.5,2.3-2.3,2.3-3.8V36.7c0-2.8-1.6-3.7-3.5-3.8c-0.6,0-1-0.4-1-1.1
			c0-0.7,1.3-0.7,2.7-0.7c1.8,0,3.7,0.4,5.5,0.4c1.8,0,3.7-0.4,5.5-0.4c0.6,0,1.3,0,1.3,0.7c0,0.7-0.8,1-1.2,1.1
			c-1.8,0.5-2.3,2.3-2.3,3.8V43c0,0.9,0.5,1.4,1.7,1.4H315.9z"/>
		<path fill="#022169" d="M350.7,52.1c0,5.9-4.7,11.2-11.2,11.2c-6.2,0-11.9-4.1-11.9-10.6c0-6.3,4.9-10.6,11.6-10.6
			C344.6,42.2,350.7,45.7,350.7,52.1z M333.8,51.9c0,5.4,2.8,9.6,5.9,9.6c3.9,0,4.8-3.6,4.8-7.5c0-5.8-2.4-10-5.9-10
			C334.8,44,333.8,47.6,333.8,51.9z"/>
		<path fill="#022169" d="M353.5,47c0-0.8-0.6-1-1.3-1.1c-0.7-0.1-1.3-0.2-1.3-0.9c0-0.6,0.9-1,1.7-1.1c3.8-0.8,4.1-1.1,5.2-1.3
			c0.4-0.1,0.9-0.3,1.4-0.3c0.2,0,0.4,0.5,0.4,1.1v2.4c2.4-2.1,3.8-3.5,7-3.5c3.9,0,5.4,4.2,5.9,4.2c0.4,0,3.1-4.2,6.7-4.2
			c5.1,0,7.7,3.2,7.7,8.6v8.7c0,1,0.7,1.5,1.3,1.6c0.7,0.1,1.3,0.4,1.3,1.1c0,0.5-0.3,0.7-1.1,0.7c-1.6,0-3.1-0.4-4.7-0.4
			s-3.1,0.4-4.7,0.4c-0.7,0-1-0.2-1-0.7c0-0.7,0.5-1,1.3-1.1c0.6-0.1,1.3-0.6,1.3-1.6v-8.7c0-3.8-2.1-5.3-3.5-5.3
			c-3.5,0-3.9,3.1-3.9,5.3v8.7c0,1,0.7,1.5,1.4,1.6c0.7,0.1,1.3,0.4,1.3,1.1c0,0.5-0.2,0.7-1.1,0.7c-1.6,0-3.1-0.4-4.7-0.4
			c-1.6,0-3.1,0.4-4.7,0.4c-0.7,0-1-0.2-1-0.7c0-0.7,0.5-1,1.3-1.1c0.6-0.1,1.3-0.6,1.3-1.6v-8.7c0-2.5-1-5.3-4-5.3
			c-1.8,0-3.4,1.9-3.4,3.7v9.6c0,1.6,0.9,2.1,1.8,2.3c0.9,0.3,1.8,0.4,1.8,1.1c0,0.5-0.3,0.7-1.1,0.7c-1.7,0-3.4-0.4-5.1-0.4
			c-1.7,0-3.4,0.4-5.1,0.4c-0.7,0-1-0.2-1-0.7c0-0.7,0.5-1,1.3-1.1c0.6-0.1,1.3-0.6,1.3-1.6V47z"/>
		<path fill="#022169" d="M395.4,51.8v1.7c0,3.6,3.7,6.5,7.2,6.5c3.7,0,6.2-2.6,6.5-2.6c0.2,0,0.5,0.3,0.5,0.5
			c0,1.6-4.2,5.3-9.9,5.3c-6.4,0-10.5-3.5-10.5-10.1c0-6,4.2-11,10.3-11c4.4,0,10,3.1,10,8.1c0,1.1-0.4,1.5-2.5,1.5H395.4z
			 M403.1,50c0.2,0,0.3-0.8,0.3-1.1c0-2.7-1.5-4.8-4-4.8c-2.8,0-4.1,3-4.1,5.1c0,0.7,0.5,0.9,1.1,0.9H403.1z"/>
		<path fill="#022169" d="M420,42.2c1,0,4.7,0.5,4.7,1.9c0,0.7,0.2,2.7,0.2,3.4c0,0.5-0.1,1-0.7,1c-0.4,0-0.8-1.1-1.6-2.3
			c-0.8-1.2-2.1-2.1-4.3-2.1c-1.3,0-2.7,0.5-2.7,2c0,3.5,10.7,2.1,10.7,10.2c0,4.8-3.7,7.2-8.1,7.2c-1.3,0-2.7-0.2-3.5-0.4
			c-0.6-0.2-1-0.2-1.3-0.2c-0.3,0-0.5,0-0.8,0c-0.6,0-0.7-0.7-0.7-1.4c0-2.1-0.1-3.7-0.1-5c0-0.3,0.4-0.6,0.7-0.6
			c1.4,0,1.6,1.5,2.1,3c0.5,1.5,1.6,2.8,4.6,2.8c1.5,0,3.2-1,3.2-2.7c0-4.2-10.7-2.2-10.7-10C411.6,43.7,415.6,42.2,420,42.2z"/>
	</g>
	
		<linearGradient id="SVGID_3_" gradientUnits="userSpaceOnUse" x1="83.4909" y1="-78.7449" x2="352.0483" y2="-78.7449" gradientTransform="matrix(1.1 0 0 1.1 -21.4472 165.8789)">
		<stop  offset="0" style="stop-color:#ED1A39"/>
		<stop  offset="3.657025e-02" style="stop-color:#ED2F39"/>
		<stop  offset="0.2277" style="stop-color:#EE6A39"/>
		<stop  offset="0.4126" style="stop-color:#EF8C37"/>
		<stop  offset="0.5868" style="stop-color:#F0A532"/>
		<stop  offset="0.7476" style="stop-color:#F2B82D"/>
		<stop  offset="0.8902" style="stop-color:#F3C329"/>
		<stop  offset="1" style="stop-color:#F3C727"/>
	</linearGradient>
	<path fill="url(#SVGID_3_)" d="M78,89.2c0,0-15.6-2.5-2-6.7c0,0,3.3,0,8.8-3.6c0,0-1-0.9,1.8-1.2c0,0,7.1-2.6,11.1-4.2
		c0,0,7.8,0.1,13.1-1.9c0,0,11.8,0.3,13.9-1.2c0,0,14.6-1.7,21.4-1.7s30-0.4,31.3,0.1c1.3,0.6,15.9,0.1,16.9,0.7
		c1,0.6,4.8-0.3,6.3,1.5c1.5,1.7-2-0.4,4.5-0.1c6.6,0.3,1-1,5-0.4c4,0.6,6.8,0.4,8.6,2.5c0,0,5.8-0.1,5.3-0.3
		c-0.5-0.1-2-1.2-1.3-1.2s3.3-0.9,3.5,0.1c0.3,1,1.5,1.3,2.8,0.9c1.3-0.4,4.5-0.7,5.3-0.3c0.8,0.4,0.3,1.3,2,1.5
		c1.8,0.1,6.3-0.9,7.3-0.7c1,0.1,4.5-0.7,5.8,0.6c1.3,1.3,4.3,0.3,4.3,0.3s6.3-0.1,6.3,0.4c0,0.6,14.6-0.4,15.4,0.9
		s12.3-1.2,12.6,0.3c0.3,1.5-3.3,0.6-3.3,0.6l-0.3,1.3c0,0,5.8-1.5,6.8-1c1,0.4,2.5-1,3.5-0.6c1,0.4,0.3,1.5,0.3,1.5s-1.8,0-2.8,0.4
		c-1,0.4-4.8,1-4.8,0.6c0-0.4-1.5-0.9-2.5-0.1c-1,0.7-0.5,1.5-5.8,0.9c-5.3-0.6-5,0.4-5,0.4s-4-1.3-5-0.9c-1,0.4-1.3,1.7-2.3,1
		c-1-0.7-4-1.2-4.3-0.6c-0.3,0.6,1.8,0.9,3,0.7c1.3-0.1,3,1.2,4.3,0.9c1.3-0.3,3.5-1,3.3-0.3c-0.3,0.7-2.5,1.6-3.5,1.3
		c-1-0.3,2.3,0.4,0.5,0.7c-1.8,0.3-5.5,1.3-5.3,0.4C265,81.8,265,81,264,81s-2.8-1.3-6.8-0.4c-4,0.9-1,0.4-2.3,0.3
		c-1.3-0.1-3.3-0.4-4.8,0c-1.5,0.4,1.3,1.5-2.5,1.3c-3.8-0.1-0.5,0.4-2,0.3c-1.5-0.1-4.8,0.3-5-0.3c-0.3-0.6-2.8-0.7-3.5-0.3
		c-0.8,0.4-2.8,1.3-5,1.2c-2.3-0.1-7.8,0.9-7.6,0.3c0.3-0.6,0-0.7,0-0.7s-7.3-0.3-8.3,0.1c-1,0.4-1.8,0.3-2.8,0.4
		c-1,0.1-7.8,0.4-8.6-0.1c0,0-4.3-1.3-4.8-0.4c-0.5,0.9-2,1.3-3.3,1.3c-1.3,0,0.3-0.4,1.8-0.9c1.5-0.4,0-0.9,0-0.9s-5.5-1-4.5,1.2
		c1,2.2-3,0.7-3,0.7s-15.1,0.7-14.4,0.1s1-0.6,1-0.6l1.5-0.1c0,0,0.3-1.2-1-0.7c-1.3,0.4-13.9-0.1-15.6,1c-1.8,1.2,0,1.2,0,1.2
		s-0.3,1.2-5.5-0.4c-5.3-1.6-1.8-0.4-1.8-0.4s-13.4,2.2-16.1,2.6c-2.8,0.4-1.8,1.3-5.3,1.3c-3.5,0,0.5-2,2.3-1.7
		c1.8,0.3,0.8-0.7,0.8-0.7s-4-1.2-6.8-0.1c-2.8,1-3.8,0.4-3.8,0.4s3.5,1.7-0.8,1.3c-4.3-0.4-4.3-1-4.3-1s-11.8-0.4-10.8,0.4
		c1,0.9,2,1.3,2,1.3s-2.3,0.3-3.3-0.3c-1-0.6-2.5,0.7-4,0.6c-1.5-0.1-2.3,0.4-3.3,0.1c-1-0.3-8.1-0.7-8.3,0.6
		c-0.3,1.3-7.3-0.7-7.8,0.6C85,90.8,78,89.2,78,89.2z M208.3,84.7c-0.5,0.9,1.5-0.3,3.5,0.6c2,0.9,0-1.3-0.3-1.5
		c-0.3-0.1-1-0.1-2.8,0C208.8,83.8,208.8,83.8,208.3,84.7z M276.1,80.2c0,0-1,0.6,0,0.9c1,0.3,4-0.1,4-0.1s1.8-0.3,0.5-0.7
		C279.4,79.7,276.1,80.2,276.1,80.2z M300.3,80.7c5.8,0.1-0.8-0.7-1.8-1.5c-1-0.7,5.5-1.3,5.8-0.1c0.3,1.2,2.5,1.3,4.3,0.4
		c1.8-0.9,3.5,0.9,4.8,0.7c1.3-0.1-1-1.5,2.8-1.3c3.8,0.1,6.6,2,6.6,2l3.3-0.1c0,0-0.3-0.4-0.8-1.3c-0.5-0.9,1.5-0.4,2.5-0.1
		c1,0.3-1.3,1-1.8,1.5c-0.5,0.4,5.3,1.2,5-0.3c-0.3-1.5,3.3-0.3,7.1,0.1c3.8,0.4,2.5-0.1,1.5-1.5c-1-1.3-2.3,0.3-2.8,1
		c-0.5,0.7-1.5-1.2-1.3-1.9c0.3-0.7-9.6-0.9-10.6-0.3c-1,0.6-5-0.3-4.8-1c0.3-0.7-2.8-0.1-3-0.7c-0.3-0.6-3.3-0.1-3.3-0.1
		s1.3,1.6-4.5,0.3c-5.8-1.3-6.6,1-6.6,1l-7.8-0.4c-6,3-2.5,3.3-2.5,3.3S294.5,80.6,300.3,80.7z M342.4,83.4c0.8,0.1,6.3-0.1,6.8-1
		c0.5-0.9,3.5,0,3.5,0l4.3,1.7c0,0,5.3-0.4,0.8-2.3c-4.5-1.9-15.4-0.6-15.4-0.6S341.6,83.2,342.4,83.4z M360.8,83.5c0,0,0.5,1,3.3,1
		c2.8,0,1.5-0.4,1.3-1c-0.3-0.6-4-0.4-4-0.4 M199.7,83.7v1c0,0,2.3,0.1,3.3,0.1c1,0,0-1,0-1l-2-0.1H199.7z"/>
</g>
</svg>
