<?xml version="1.0" encoding="utf-8"?>
<!-- Generator: Adobe Illustrator 18.0.0, SVG Export Plug-In . SVG Version: 6.00 Build 0)  -->
<!DOCTYPE svg PUBLIC "-//W3C//DTD SVG 1.1//EN" "http://www.w3.org/Graphics/SVG/1.1/DTD/svg11.dtd">
<svg version="1.1" id="Layer_1" xmlns="http://www.w3.org/2000/svg" xmlns:xlink="http://www.w3.org/1999/xlink" x="0px" y="0px"
	 viewBox="0 0 450 80" enable-background="new 0 0 450 80" xml:space="preserve">
<g opacity="0.3">
	<polygon points="123.9,38.2 90.8,38.2 90.8,20.4 85.7,20.4 85.7,62.5 90.8,62.5 90.8,42.8 123.9,42.8 123.9,62.5 129,62.5 
		129,20.4 123.9,20.4 	"/>
	<path d="M152,31.3c-9.3,0-16.6,6.3-16.6,15.9c0,9.3,7,16.2,17.2,16.2c10.3,0,13.3-3.9,16.5-7.2l-3.7-2.7c-1.9,2.4-4.5,5.9-12.3,5.9
		c-7.9,0-12.5-5.4-12.9-11.1h29.8C170.1,36.3,161.7,31.3,152,31.3z M140.3,44.3c1.3-5.6,5.2-9,12.1-9c7.2,0,11.5,4.1,12.4,9H140.3z"
		/>
	<path d="M206.3,41.1c0-7.8-7.9-9.8-14.8-9.8c-10.5,0-13.9,4.3-15.6,6.5l3.5,2.4c1.5-1.7,4.3-5.1,12.4-5.1c4.8,0,9.7,1.6,9.7,5.7V42
		c-11.8,1.4-27.5,1.8-27.5,12.3c0,7.8,7.4,9.2,12.3,9.2c5.8,0,10.7-1.7,15.1-4.6c0,1.2,0.3,2.7,0.6,3.7h4.7
		c-0.3-1.6-0.5-2.9-0.5-4.7V41.1z M201.6,54.9c-3,1.6-8.9,4.8-15.4,4.8c-2.3,0-7.6-0.6-7.6-5.4c0-5.9,9.3-7.1,23.1-8.5V54.9z"/>
	<path d="M248.4,20.4h-4.7v16c-4.2-3.1-7.3-5.1-13.6-5.1c-13,0-17.4,9.3-17.4,16.3c0,6.9,4.9,15.8,16.6,15.8c7,0,10-2,14.6-5.7
		l0.6,4.8h4.2c-0.1-0.9-0.3-4.9-0.3-5.7V20.4z M243.7,53c-2.9,3.1-8.1,6.4-13.2,6.4c-8.2,0-13.1-5.4-13.1-11.7
		c0-9.2,6.7-12.5,13-12.5c6.5,0,10.5,3.1,13.3,6V53z"/>
	<path d="M260.5,40.2c0-3.2,3.1-4.9,8.7-4.9c6,0,9.9,2.3,12.3,5.4l3.2-2.9c-1.6-2.2-5.3-6.5-15.5-6.5c-6.4,0-13.4,2.3-13.4,9.2
		c0,12.5,25.2,5.2,25.2,13.8c0,3.6-4.5,5.2-9.5,5.2c-6.4,0-10.8-2.7-13.7-6.4l-3.5,3.2c4.5,5.3,10.1,7.2,16.8,7.2
		c7.8,0,14.6-2.5,14.6-9.5C285.7,41,260.5,48,260.5,40.2z"/>
	<path d="M311.5,31.3c-7,0-10,2-14.4,5.5v-4.6h-4.7v41h4.7V58.4c4.2,3.1,7.3,5.1,13.6,5.1c13,0,17.4-9.3,17.4-16.3
		C328.1,40.2,323.2,31.3,311.5,31.3z M310.4,59.5c-6.5,0-10.5-3.1-13.3-6V41.7c2.9-3.1,8.1-6.4,13.2-6.4c8.2,0,13.1,5.4,13.1,11.7
		C323.4,56.2,316.7,59.5,310.4,59.5z"/>
	<path d="M337.8,38.5v-6.3h-4.7v30.3h4.7V44.4c0.2-0.9,5-8.6,11.6-8.6c2,0,3.2,0.3,3.8,0.4v-4.7c-0.9-0.2-1.7-0.2-2.8-0.2
		C344.4,31.3,340.5,35.5,337.8,38.5z"/>
	<rect x="359.4" y="20.4" width="5.4" height="5.4"/>
	<rect x="359.8" y="32.2" width="4.7" height="30.3"/>
	<path d="M390.4,31.3c-5.4,0-9.6,2.5-12.7,5.3v-4.4h-4.7v30.3h4.7V41.4c2.7-2.9,7-6.1,12.2-6.1c3.3,0,8.5,1,8.4,8.2v19.1h4.7v-20
		C402.9,32.2,394.2,31.3,390.4,31.3z"/>
	<path d="M425.6,56.4c-10.7-0.1-11.8-0.5-11.8-2.5c0-1.2,0.7-2,2.1-2.5c2.8,1,4.3,1.4,8.8,1.4c10.7,0,14.1-6.5,14.1-10.4
		c0-3.2-0.9-4.7-1.7-5.9c0.9-0.5,2.2-1.3,5.7-1.3v-4.3c-4.1,0-5.3,1-7.8,3.1c-3.4-2.1-6.2-2.8-11.4-2.8c-7.5,0-14.5,3-14.5,10.7
		c0,3.5,1.6,5.4,4.1,7.6c-1.6,0.9-4.2,2.5-4.2,5.3c0,2.4,1.6,3.3,3.3,4.2c-4,1.4-5.2,3.4-5.2,5.6c0,7.4,10,8.5,16.2,8.5
		c8.1,0,19.5-1.2,19.5-9.3C443,57.4,437,56.5,425.6,56.4z M423.9,35.1c4.3,0,10.4,1,10.4,6.9c0,5.5-5.7,7-10.3,7
		c-3.3,0-10.4-1-10.4-7C413.7,36.4,419.6,35.1,423.9,35.1z M423.4,69.4c-5.4,0-11.6-1.1-11.6-4.6c0-2,1.8-3.2,5-4.3
		c3.7,0.2,7.4,0.3,11.1,0.4c8.5,0.3,10.7,0.9,10.7,3.5C438.5,68.1,431.3,69.4,423.4,69.4z"/>
	<polygon points="62.1,31.5 52.2,31.5 52.2,27.7 43.8,27.7 43.8,36.2 51.5,36.2 51.5,37.5 43.8,37.5 43.8,45.9 51.5,45.9 51.5,47.2 
		43.8,47.2 43.8,55.7 52.2,55.7 52.2,51.8 62.1,51.8 62.1,47.9 72.3,47.9 72.3,34.7 62.1,34.7 	"/>
	<rect x="35.8" y="23.9" width="6.8" height="6.8"/>
	<rect x="35.8" y="33.7" width="6.8" height="6.8"/>
	<rect x="35.8" y="43.5" width="6.8" height="6.8"/>
	<rect x="35.8" y="53.3" width="6.8" height="6.8"/>
	<rect x="27.7" y="19.1" width="5.4" height="5.4"/>
	<rect x="27.7" y="29.4" width="5.4" height="5.4"/>
	<rect x="27.7" y="39.8" width="5.4" height="5.4"/>
	<rect x="27.7" y="50.1" width="5.4" height="5.4"/>
	<rect x="27.7" y="60.4" width="5.4" height="5.4"/>
	<rect x="19.4" y="13.8" width="4.3" height="4.3"/>
	<rect x="19.4" y="24.3" width="4.3" height="4.3"/>
	<rect x="19.4" y="34.8" width="4.3" height="4.3"/>
	<rect x="19.4" y="45.2" width="4.3" height="4.3"/>
	<rect x="19.4" y="55.7" width="4.3" height="4.3"/>
	<rect x="19.4" y="66.2" width="4.3" height="4.3"/>
	<rect x="11" y="9" width="3.5" height="3.5"/>
	<rect x="11" y="19.5" width="3.5" height="3.5"/>
	<rect x="11" y="30" width="3.5" height="3.5"/>
	<rect x="11" y="40.6" width="3.5" height="3.5"/>
	<rect x="11" y="51.1" width="3.5" height="3.5"/>
	<rect x="11" y="61.6" width="3.5" height="3.5"/>
	<rect x="11" y="72.1" width="3.5" height="3.5"/>
</g>
<g>
	<g id="Text__x28_Blue_x29__1_">
		<path fill="#0079C1" d="M83.7,18.1h5.1v17.8h33.1V18.1h5.1v42.1h-5.1V40.5H88.8v19.8h-5.1V18.1z"/>
		<path fill="#0079C1" d="M167,53.9c-3.1,3.3-6.1,7.2-16.5,7.2c-10.2,0-17.2-7-17.2-16.2c0-9.6,7.2-15.9,16.6-15.9
			c9.7,0,18.1,5,17.9,17h-29.8c0.5,5.7,5,11.1,12.9,11.1c7.8,0,10.4-3.5,12.3-5.9L167,53.9z M162.8,42c-0.9-5-5.2-9-12.4-9
			c-6.9,0-10.8,3.5-12.1,9H162.8z"/>
		<path fill="#0079C1" d="M204.3,55.5c0,1.8,0.2,3.1,0.5,4.7h-4.7c-0.2-0.9-0.6-2.4-0.6-3.7c-4.4,2.8-9.3,4.6-15.1,4.6
			c-5,0-12.3-1.4-12.3-9.2c0-10.5,15.7-10.9,27.5-12.3v-1.2c0-4.1-4.9-5.7-9.7-5.7c-8.1,0-10.9,3.4-12.4,5.1l-3.5-2.4
			c1.7-2.1,5-6.5,15.6-6.5c6.9,0,14.8,2,14.8,9.8V55.5z M199.6,43.5c-13.8,1.3-23.1,2.6-23.1,8.5c0,4.8,5.3,5.4,7.6,5.4
			c6.5,0,12.4-3.1,15.4-4.8V43.5z"/>
		<path fill="#0079C1" d="M246.4,18.1v36.5c0,0.8,0.3,4.8,0.3,5.7h-4.2l-0.6-4.8c-4.6,3.7-7.6,5.7-14.6,5.7
			c-11.7,0-16.6-8.9-16.6-15.8c0-7,4.4-16.3,17.4-16.3c6.3,0,9.4,2,13.6,5.1v-16H246.4z M241.7,39c-2.8-2.9-6.7-6-13.3-6
			c-6.3,0-13,3.2-13,12.5c0,6.3,4.9,11.7,13.1,11.7c5,0,10.3-3.3,13.2-6.4V39z"/>
		<path fill="#0079C1" d="M255.7,50.8c3,3.7,7.4,6.4,13.7,6.4c5,0,9.5-1.6,9.5-5.2c0-8.6-25.2-1.3-25.2-13.8c0-6.9,7.1-9.2,13.4-9.2
			c10.2,0,13.9,4.3,15.5,6.5l-3.2,2.9c-2.5-3.2-6.4-5.4-12.3-5.4c-5.6,0-8.7,1.7-8.7,4.9c0,7.8,25.2,0.8,25.2,13.7
			c0,7-6.8,9.5-14.6,9.5c-6.7,0-12.3-1.9-16.8-7.2L255.7,50.8z"/>
		<path fill="#0079C1" d="M290.5,29.9h4.7v4.6c4.3-3.5,7.4-5.5,14.4-5.5c11.7,0,16.6,8.9,16.6,15.8c0,7-4.4,16.3-17.4,16.3
			c-6.3,0-9.4-2-13.6-5.1v14.8h-4.7V29.9z M295.1,51.2c2.8,2.9,6.7,6,13.3,6c6.3,0,13-3.2,13-12.5c0-6.3-4.9-11.7-13.1-11.7
			c-5,0-10.3,3.3-13.2,6.4V51.2z"/>
		<path fill="#0079C1" d="M331.1,29.9h4.7v6.3c2.7-3.1,6.5-7.2,12.6-7.2c1,0,1.9,0.1,2.8,0.2v4.7c-0.6-0.1-1.7-0.4-3.8-0.4
			c-6.7,0-11.5,7.7-11.6,8.6v18.1h-4.7V29.9z"/>
		<path fill="#0079C1" d="M362.8,18.1v5.4h-5.4v-5.4H362.8z M357.8,29.9h4.7v30.3h-4.7V29.9z"/>
		<path fill="#0079C1" d="M370.9,29.9h4.7v4.4c3.2-2.8,7.4-5.3,12.7-5.3c3.8,0,12.5,0.9,12.5,11.2v20h-4.7V41.2
			c0.1-7.2-5.1-8.2-8.4-8.2c-5.2,0-9.4,3.2-12.2,6.1v21.2h-4.7V29.9z"/>
		<path fill="#0079C1" d="M440.8,33c-3.5,0-4.8,0.8-5.7,1.3c0.8,1.2,1.7,2.6,1.7,5.9c0,3.8-3.4,10.4-14.1,10.4c-4.5,0-6-0.4-8.8-1.4
			c-1.4,0.5-2.1,1.3-2.1,2.5c0,2,1.2,2.4,11.8,2.5c11.4,0.1,17.4,1,17.4,7.5c0,8.1-11.4,9.3-19.5,9.3c-6.3,0-16.2-1.2-16.2-8.5
			c0-2.2,1.2-4.2,5.2-5.6c-1.7-0.9-3.3-1.8-3.3-4.2c0-2.8,2.6-4.3,4.2-5.3c-2.5-2.3-4.1-4.2-4.1-7.6c0-7.7,7-10.7,14.5-10.7
			c5.2,0,8,0.7,11.4,2.8c2.5-2,3.8-3.1,7.8-3.1V33z M436.5,62c0-2.7-2.1-3.2-10.7-3.5c-3.7-0.1-7.4-0.2-11.1-0.4
			c-3.2,1.2-5,2.3-5,4.3c0,3.5,6.2,4.6,11.6,4.6C429.3,67.1,436.5,65.8,436.5,62z M411.7,39.7c0,6,7.1,7,10.4,7
			c4.6,0,10.3-1.5,10.3-7c0-5.9-6-6.9-10.4-6.9C417.6,32.8,411.7,34.1,411.7,39.7z"/>
	</g>
	<g id="Text__x28_White_x29_" display="none">
		<path display="inline" fill="#FFFFFF" d="M83.7,18.1h5.1v17.8h33.1V18.1h5.1v42.1h-5.1V40.5H88.8v19.8h-5.1V18.1z"/>
		<path display="inline" fill="#FFFFFF" d="M167,53.9c-3.1,3.3-6.1,7.2-16.5,7.2c-10.2,0-17.2-7-17.2-16.2c0-9.6,7.2-15.9,16.6-15.9
			c9.7,0,18.1,5,17.9,17h-29.8c0.5,5.7,5,11.1,12.9,11.1c7.8,0,10.4-3.5,12.3-5.9L167,53.9z M162.8,42c-0.9-5-5.2-9-12.4-9
			c-6.9,0-10.8,3.5-12.1,9H162.8z"/>
		<path display="inline" fill="#FFFFFF" d="M204.3,55.5c0,1.8,0.2,3.1,0.5,4.7h-4.7c-0.2-0.9-0.6-2.4-0.6-3.7
			c-4.4,2.8-9.3,4.6-15.1,4.6c-5,0-12.3-1.4-12.3-9.2c0-10.5,15.7-10.9,27.5-12.3v-1.2c0-4.1-4.9-5.7-9.7-5.7
			c-8.1,0-10.9,3.4-12.4,5.1l-3.5-2.4c1.7-2.1,5-6.5,15.6-6.5c6.9,0,14.8,2,14.8,9.8V55.5z M199.6,43.5c-13.8,1.3-23.1,2.6-23.1,8.5
			c0,4.8,5.3,5.4,7.6,5.4c6.5,0,12.4-3.1,15.4-4.8V43.5z"/>
		<path display="inline" fill="#FFFFFF" d="M246.4,18.1v36.5c0,0.8,0.3,4.8,0.3,5.7h-4.2l-0.6-4.8c-4.6,3.7-7.6,5.7-14.6,5.7
			c-11.7,0-16.6-8.9-16.6-15.8c0-7,4.4-16.3,17.4-16.3c6.3,0,9.4,2,13.6,5.1v-16H246.4z M241.7,39c-2.8-2.9-6.7-6-13.3-6
			c-6.3,0-13,3.2-13,12.5c0,6.3,4.9,11.7,13.1,11.7c5,0,10.3-3.3,13.2-6.4V39z"/>
		<path display="inline" fill="#FFFFFF" d="M255.7,50.8c3,3.7,7.4,6.4,13.7,6.4c5,0,9.5-1.6,9.5-5.2c0-8.6-25.2-1.3-25.2-13.8
			c0-6.9,7.1-9.2,13.4-9.2c10.2,0,13.9,4.3,15.5,6.5l-3.2,2.9c-2.5-3.2-6.4-5.4-12.3-5.4c-5.6,0-8.7,1.7-8.7,4.9
			c0,7.8,25.2,0.8,25.2,13.7c0,7-6.8,9.5-14.6,9.5c-6.7,0-12.3-1.9-16.8-7.2L255.7,50.8z"/>
		<path display="inline" fill="#FFFFFF" d="M290.5,29.9h4.7v4.6c4.3-3.5,7.4-5.5,14.4-5.5c11.7,0,16.6,8.9,16.6,15.8
			c0,7-4.4,16.3-17.4,16.3c-6.3,0-9.4-2-13.6-5.1v14.8h-4.7V29.9z M295.1,51.2c2.8,2.9,6.7,6,13.3,6c6.3,0,13-3.2,13-12.5
			c0-6.3-4.9-11.7-13.1-11.7c-5,0-10.3,3.3-13.2,6.4V51.2z"/>
		<path display="inline" fill="#FFFFFF" d="M331.1,29.9h4.7v6.3c2.7-3.1,6.5-7.2,12.6-7.2c1,0,1.9,0.1,2.8,0.2v4.7
			c-0.6-0.1-1.7-0.4-3.8-0.4c-6.7,0-11.5,7.7-11.6,8.6v18.1h-4.7V29.9z"/>
		<path display="inline" fill="#FFFFFF" d="M362.8,18.1v5.4h-5.4v-5.4H362.8z M357.8,29.9h4.7v30.3h-4.7V29.9z"/>
		<path display="inline" fill="#FFFFFF" d="M370.9,29.9h4.7v4.4c3.2-2.8,7.4-5.3,12.7-5.3c3.8,0,12.5,0.9,12.5,11.2v20h-4.7V41.2
			c0.1-7.2-5.1-8.2-8.4-8.2c-5.2,0-9.4,3.2-12.2,6.1v21.2h-4.7V29.9z"/>
		<path display="inline" fill="#FFFFFF" d="M440.8,33c-3.5,0-4.8,0.8-5.7,1.3c0.8,1.2,1.7,2.6,1.7,5.9c0,3.8-3.4,10.4-14.1,10.4
			c-4.5,0-6-0.4-8.8-1.4c-1.4,0.5-2.1,1.3-2.1,2.5c0,2,1.2,2.4,11.8,2.5c11.4,0.1,17.4,1,17.4,7.5c0,8.1-11.4,9.3-19.5,9.3
			c-6.3,0-16.2-1.2-16.2-8.5c0-2.2,1.2-4.2,5.2-5.6c-1.7-0.9-3.3-1.8-3.3-4.2c0-2.8,2.6-4.3,4.2-5.3c-2.5-2.3-4.1-4.2-4.1-7.6
			c0-7.7,7-10.7,14.5-10.7c5.2,0,8,0.7,11.4,2.8c2.5-2,3.8-3.1,7.8-3.1V33z M436.5,62c0-2.7-2.1-3.2-10.7-3.5
			c-3.7-0.1-7.4-0.2-11.1-0.4c-3.2,1.2-5,2.3-5,4.3c0,3.5,6.2,4.6,11.6,4.6C429.3,67.1,436.5,65.8,436.5,62z M411.7,39.7
			c0,6,7.1,7,10.4,7c4.6,0,10.3-1.5,10.3-7c0-5.9-6-6.9-10.4-6.9C417.6,32.8,411.7,34.1,411.7,39.7z"/>
	</g>
	<g id="Flare_1_">
		<polygon fill="#FFD200" points="70.3,32.4 60.1,32.4 60.1,29.2 50.2,29.2 50.2,25.4 41.8,25.4 41.8,33.9 49.5,33.9 49.5,35.2 
			41.8,35.2 41.8,43.6 49.5,43.6 49.5,44.9 41.8,44.9 41.8,53.4 50.2,53.4 50.2,49.5 60.1,49.5 60.1,45.6 70.3,45.6 		"/>
		<rect x="33.8" y="21.6" fill="#FFD200" width="6.8" height="6.8"/>
		<rect x="33.8" y="31.4" fill="#FFD200" width="6.8" height="6.8"/>
		<rect x="33.8" y="41.2" fill="#FFD200" width="6.8" height="6.8"/>
		<rect x="33.8" y="51" fill="#FFD200" width="6.8" height="6.8"/>
		<rect x="25.7" y="16.8" fill="#FFD200" width="5.4" height="5.4"/>
		<rect x="25.7" y="27.1" fill="#FFD200" width="5.4" height="5.4"/>
		<rect x="25.7" y="37.5" fill="#FFD200" width="5.4" height="5.4"/>
		<rect x="25.7" y="47.8" fill="#FFD200" width="5.4" height="5.4"/>
		<rect x="25.7" y="58.1" fill="#FFD200" width="5.4" height="5.4"/>
		<rect x="17.4" y="11.5" fill="#FFD200" width="4.3" height="4.3"/>
		<rect x="17.4" y="22" fill="#FFD200" width="4.3" height="4.3"/>
		<rect x="17.4" y="32.5" fill="#FFD200" width="4.3" height="4.3"/>
		<rect x="17.4" y="42.9" fill="#FFD200" width="4.3" height="4.3"/>
		<rect x="17.4" y="53.4" fill="#FFD200" width="4.3" height="4.3"/>
		<rect x="17.4" y="63.9" fill="#FFD200" width="4.3" height="4.3"/>
		<rect x="9" y="6.7" fill="#FFD200" width="3.5" height="3.5"/>
		<rect x="9" y="17.2" fill="#FFD200" width="3.5" height="3.5"/>
		<rect x="9" y="27.7" fill="#FFD200" width="3.5" height="3.5"/>
		<rect x="9" y="38.3" fill="#FFD200" width="3.5" height="3.5"/>
		<rect x="9" y="48.8" fill="#FFD200" width="3.5" height="3.5"/>
		<rect x="9" y="59.3" fill="#FFD200" width="3.5" height="3.5"/>
		<rect x="9" y="69.8" fill="#FFD200" width="3.5" height="3.5"/>
	</g>
</g>
<g id="Black" display="none">
	<g id="Text__x28_Blue_x29_" display="inline">
		<path d="M83.7,18.1h5.1v17.8h33.1V18.1h5.1v42.1h-5.1V40.5H88.8v19.8h-5.1V18.1z"/>
		<path d="M167,53.9c-3.1,3.3-6.1,7.2-16.5,7.2c-10.2,0-17.2-7-17.2-16.2c0-9.6,7.2-15.9,16.6-15.9c9.7,0,18.1,5,17.9,17h-29.8
			c0.5,5.7,5,11.1,12.9,11.1c7.8,0,10.4-3.5,12.3-5.9L167,53.9z M162.8,42c-0.9-5-5.2-9-12.4-9c-6.9,0-10.8,3.5-12.1,9H162.8z"/>
		<path d="M204.3,55.5c0,1.8,0.2,3.1,0.5,4.7h-4.7c-0.2-0.9-0.6-2.4-0.6-3.7c-4.4,2.8-9.3,4.6-15.1,4.6c-5,0-12.3-1.4-12.3-9.2
			c0-10.5,15.7-10.9,27.5-12.3v-1.2c0-4.1-4.9-5.7-9.7-5.7c-8.1,0-10.9,3.4-12.4,5.1l-3.5-2.4c1.7-2.1,5-6.5,15.6-6.5
			c6.9,0,14.8,2,14.8,9.8V55.5z M199.6,43.5c-13.8,1.3-23.1,2.6-23.1,8.5c0,4.8,5.3,5.4,7.6,5.4c6.5,0,12.4-3.1,15.4-4.8V43.5z"/>
		<path d="M246.4,18.1v36.5c0,0.8,0.3,4.8,0.3,5.7h-4.2l-0.6-4.8c-4.6,3.7-7.6,5.7-14.6,5.7c-11.7,0-16.6-8.9-16.6-15.8
			c0-7,4.4-16.3,17.4-16.3c6.3,0,9.4,2,13.6,5.1v-16H246.4z M241.7,39c-2.8-2.9-6.7-6-13.3-6c-6.3,0-13,3.2-13,12.5
			c0,6.3,4.9,11.7,13.1,11.7c5,0,10.3-3.3,13.2-6.4V39z"/>
		<path d="M255.7,50.8c3,3.7,7.4,6.4,13.7,6.4c5,0,9.5-1.6,9.5-5.2c0-8.6-25.2-1.3-25.2-13.8c0-6.9,7.1-9.2,13.4-9.2
			c10.2,0,13.9,4.3,15.5,6.5l-3.2,2.9c-2.5-3.2-6.4-5.4-12.3-5.4c-5.6,0-8.7,1.7-8.7,4.9c0,7.8,25.2,0.8,25.2,13.7
			c0,7-6.8,9.5-14.6,9.5c-6.7,0-12.3-1.9-16.8-7.2L255.7,50.8z"/>
		<path d="M290.5,29.9h4.7v4.6c4.3-3.5,7.4-5.5,14.4-5.5c11.7,0,16.6,8.9,16.6,15.8c0,7-4.4,16.3-17.4,16.3c-6.3,0-9.4-2-13.6-5.1
			v14.8h-4.7V29.9z M295.1,51.2c2.8,2.9,6.7,6,13.3,6c6.3,0,13-3.2,13-12.5c0-6.3-4.9-11.7-13.1-11.7c-5,0-10.3,3.3-13.2,6.4V51.2z"
			/>
		<path d="M331.1,29.9h4.7v6.3c2.7-3.1,6.5-7.2,12.6-7.2c1,0,1.9,0.1,2.8,0.2v4.7c-0.6-0.1-1.7-0.4-3.8-0.4
			c-6.7,0-11.5,7.7-11.6,8.6v18.1h-4.7V29.9z"/>
		<path d="M362.8,18.1v5.4h-5.4v-5.4H362.8z M357.8,29.9h4.7v30.3h-4.7V29.9z"/>
		<path d="M370.9,29.9h4.7v4.4c3.2-2.8,7.4-5.3,12.7-5.3c3.8,0,12.5,0.9,12.5,11.2v20h-4.7V41.2c0.1-7.2-5.1-8.2-8.4-8.2
			c-5.2,0-9.4,3.2-12.2,6.1v21.2h-4.7V29.9z"/>
		<path d="M440.8,33c-3.5,0-4.8,0.8-5.7,1.3c0.8,1.2,1.7,2.6,1.7,5.9c0,3.8-3.4,10.4-14.1,10.4c-4.5,0-6-0.4-8.8-1.4
			c-1.4,0.5-2.1,1.3-2.1,2.5c0,2,1.2,2.4,11.8,2.5c11.4,0.1,17.4,1,17.4,7.5c0,8.1-11.4,9.3-19.5,9.3c-6.3,0-16.2-1.2-16.2-8.5
			c0-2.2,1.2-4.2,5.2-5.6c-1.7-0.9-3.3-1.8-3.3-4.2c0-2.8,2.6-4.3,4.2-5.3c-2.5-2.3-4.1-4.2-4.1-7.6c0-7.7,7-10.7,14.5-10.7
			c5.2,0,8,0.7,11.4,2.8c2.5-2,3.8-3.1,7.8-3.1V33z M436.5,62c0-2.7-2.1-3.2-10.7-3.5c-3.7-0.1-7.4-0.2-11.1-0.4
			c-3.2,1.2-5,2.3-5,4.3c0,3.5,6.2,4.6,11.6,4.6C429.3,67.1,436.5,65.8,436.5,62z M411.7,39.7c0,6,7.1,7,10.4,7
			c4.6,0,10.3-1.5,10.3-7c0-5.9-6-6.9-10.4-6.9C417.6,32.8,411.7,34.1,411.7,39.7z"/>
	</g>
	<g id="Flare" display="inline">
		<polygon points="70.3,32.4 60.1,32.4 60.1,29.2 50.2,29.2 50.2,25.4 41.8,25.4 41.8,33.9 49.5,33.9 49.5,35.2 41.8,35.2 
			41.8,43.6 49.5,43.6 49.5,44.9 41.8,44.9 41.8,53.4 50.2,53.4 50.2,49.5 60.1,49.5 60.1,45.6 70.3,45.6 		"/>
		<rect x="33.8" y="21.6" width="6.8" height="6.8"/>
		<rect x="33.8" y="31.4" width="6.8" height="6.8"/>
		<rect x="33.8" y="41.2" width="6.8" height="6.8"/>
		<rect x="33.8" y="51" width="6.8" height="6.8"/>
		<rect x="25.7" y="16.8" width="5.4" height="5.4"/>
		<rect x="25.7" y="27.1" width="5.4" height="5.4"/>
		<rect x="25.7" y="37.5" width="5.4" height="5.4"/>
		<rect x="25.7" y="47.8" width="5.4" height="5.4"/>
		<rect x="25.7" y="58.1" width="5.4" height="5.4"/>
		<rect x="17.4" y="11.5" width="4.3" height="4.3"/>
		<rect x="17.4" y="22" width="4.3" height="4.3"/>
		<rect x="17.4" y="32.5" width="4.3" height="4.3"/>
		<rect x="17.4" y="42.9" width="4.3" height="4.3"/>
		<rect x="17.4" y="53.4" width="4.3" height="4.3"/>
		<rect x="17.4" y="63.9" width="4.3" height="4.3"/>
		<rect x="9" y="6.7" width="3.5" height="3.5"/>
		<rect x="9" y="17.2" width="3.5" height="3.5"/>
		<rect x="9" y="27.7" width="3.5" height="3.5"/>
		<rect x="9" y="38.3" width="3.5" height="3.5"/>
		<rect x="9" y="48.8" width="3.5" height="3.5"/>
		<rect x="9" y="59.3" width="3.5" height="3.5"/>
		<rect x="9" y="69.8" width="3.5" height="3.5"/>
	</g>
</g>
</svg>
