<svg xmlns="http://www.w3.org/2000/svg" xmlns:xlink="http://www.w3.org/1999/xlink" viewBox="0 0 425.9 90.8" enable-background="new 0 0 425.9 90.8"><defs><path id="SVGID_1_" d="M0 0h425.9v90.8H0z"/></defs><clipPath id="SVGID_2_"><use xlink:href="#SVGID_1_" overflow="visible"/></clipPath><path clip-path="url(#SVGID_2_)" fill="#757679" d="M385.2 13.8c0 1.4-.3 2.8-.5 4.2.3 0 .6-.1 1-.1.5 0 1 .1 1.4.3.5.1 1 .3 1.5.3 2 0 3.6-1.4 3.6-3.5 0-2.7-4.2-4.1-4.2-6.5 0-1 .8-1.5 1.8-1.5 1.6 0 2.5 1.4 2.5 3h.6c0-1.1.1-2.3.3-3.3-.3 0-.6.1-.9.1s-.8-.1-1.2-.2c-.4-.1-.8-.1-1.3-.1-1.8 0-3.3.8-3.3 2.9 0 2.7 4.2 4.8 4.2 6.6 0 1.1-.9 1.7-1.9 1.7-1.9 0-3-2-2.9-3.9h-.7zm-3.1.8c-.8 1.2-2.4 2.5-3.9 2.5-1.8 0-2.6-1.2-2.6-2.6 0-.6 0-.9.2-1.3 3.2-.1 8-1.1 8-4.6 0-1.5-1.3-2.2-2.7-2.2-3.3 0-7.5 4-7.5 8.4 0 2.4 1.5 3.7 3.5 3.7 2.4 0 4.4-1.6 5.5-3.6l-.5-.3zm-.2-6.2c0 2.2-2.6 4.2-6 4.2.4-1.6 2.7-5.6 4.7-5.6.9 0 1.3.6 1.3 1.4m-19.9.2c.5-.2 1-.3 1.2-.3.5 0 .5.3.7 1.3.2 1.4.2 2.5.2 3.3 0 1.7 0 4-.8 5.6 4.3 0 9.1-7.6 9.1-10.5 0-.9-.4-1.3-1.4-1.3-.9 0-1.2.3-1.2 1.2 0 1.3 1.2.4 1.2 1.5 0 1.5-2.8 6.9-5.4 7.5.3-1.5.4-2.8.4-4.2 0-2-.2-4.2-1-6-.9.5-2.2 1-3.2 1.3l.2.6zM360.8 2c0-.8-.5-1.3-1.3-1.3-.9 0-1.3.7-1.3 1.5 0 .7.4 1.2 1.2 1.2.9.1 1.4-.6 1.4-1.4m-1.9 7.6c.3-1.1.6-2.3.8-3.1-1.3.5-2.9.9-4 1.2v.6c.3 0 .6-.1.9-.1.4 0 .7.1.7.4 0 .2-.4 1.8-.5 2.1l-1.2 4.6c-.3 1.2-.4 1.8-.4 2.1 0 .8.4 1.1 1.1 1.1 1.4 0 2.5-1.5 3.5-3l-.4-.3c-.4.6-1.2 1.7-1.8 1.7-.2 0-.4-.1-.4-.5 0-.3.1-.7.2-1.2l1.5-5.6zm-11.8-6.4c.3-1.3.5-1.7 1.7-1.7h.6V1c-1.3.1-2.3.1-3.3.1s-2 0-3-.1v.6h.4c.9 0 1.2.2 1.2.6 0 .4-.1 1.1-.5 2.6l-2.7 11.7c-.2.9-.5 1.2-1.5 1.2h-.8v.6c2-.1 3.6-.1 6.6-.1 1.7 0 4.1 0 5.7.1.7-1.6 1.4-3.2 2.1-4.7h-.6c-1.7 3.3-3.7 3.8-7.1 3.8h-1.5c-.3 0-.5 0-.5-.3s.4-1.9.5-2.3l2.7-11.6zm-21.4 8.6c0-1.6.9-4.7 3-4.7 1 0 1.4.9 1.4 1.8 0 1.5-1 4.7-2.9 4.7-1 .1-1.5-.8-1.5-1.8m-1.8 8.2c0-1 .7-2 1.2-2.5 4.4 1.1 5.6 1.7 5.6 2.9 0 1.5-2.1 2.3-3.3 2.3-1.8 0-3.5-.7-3.5-2.7m2-3.8c-.8-.2-1-.3-1-.6 0-.2.2-.5.8-1.1.4.1.9.2 1.4.2 2.5 0 4.7-2.4 4.7-4.8 0-.8-.3-1.6-.9-2.2.2-.2.4-.4.6-.4.4 0 .3 1.1 1.2 1.1.5 0 .8-.4.8-1.1 0-.6-.5-1.1-1.1-1.1-.6 0-1.4.6-1.8 1.1-.6-.5-1.3-.8-2.2-.8-2.4 0-4.8 2.4-4.8 4.8 0 1.2.6 2.3 1.6 3-1.4.8-2 1.4-2 2 0 .5.3.9 1.4 1.2-1.5.3-2.9 1.4-2.9 3 0 2.4 2.6 3 4.6 3 2.4 0 5.6-1.2 5.6-4 0-1.5-1.4-2.2-2.9-2.6l-3.1-.7zm-16.3-8c.3 0 .6-.1.9-.1.4 0 .7.1.7.4 0 .2-.4 1.8-.5 2.1l-.9 3.4c-.4 1.4-.7 2.9-1.1 4h2l1.3-5.4c3.5-3.6 4.8-4.7 5.6-4.7.4 0 .6.2.6.6 0 .6-.4 2-.6 2.4l-1.3 3.9c-.3.9-.5 1.7-.5 2.3 0 .9.5 1.2 1.3 1.2 1.4 0 2.5-1.5 3.5-3l-.4-.3c-.4.6-1.2 1.7-1.8 1.7-.2 0-.4-.1-.4-.5 0-.5.2-1.2.4-1.6l1.4-4.6c.4-1.3.6-2.1.6-2.5 0-.9-.5-1.3-1.2-1.3-1.3 0-3 1-6.8 5.2l.5-2.1c.3-1.1.6-2.3.8-3.1-1.3.5-2.9.9-4 1.2v.8zM307.5 2c0-.8-.5-1.3-1.3-1.3-.9 0-1.3.7-1.3 1.5 0 .7.4 1.2 1.2 1.2.8.1 1.4-.6 1.4-1.4m-1.9 7.6c.3-1.1.6-2.3.8-3.1-1.3.5-2.9.9-4 1.2v.6c.3 0 .6-.1.9-.1.4 0 .7.1.7.4 0 .2-.4 1.8-.5 2.1l-1.2 4.6c-.3 1.2-.4 1.8-.4 2.1 0 .8.4 1.1 1.1 1.1 1.4 0 2.5-1.5 3.5-3l-.4-.3c-.4.6-1.2 1.7-1.8 1.7-.2 0-.4-.1-.4-.5 0-.3.1-.7.2-1.2l1.5-5.6zm-6.4 5.2c-.8 1.4-2.2 2.3-3.6 2.3-1.9 0-2.4-1.5-2.4-2.7 0-2.4 1.4-7.4 4.6-7.4 1.1 0 1.4.4 1.4.9s-.4.8-.4 1.4c0 .6.4.8 1.1.8 1.1 0 1.4-.4 1.4-1.5 0-1.5-1.4-2.2-3.1-2.2-3.9 0-7 4.2-7 7.7 0 2.5 1.2 4.4 3.7 4.4 2.3 0 4.1-1.7 5-3.5l-.7-.2zM278 8.2c.3 0 .6-.1.9-.1.4 0 .7.1.7.4 0 .2-.4 1.8-.5 2.1l-.9 3.4c-.4 1.4-.7 2.9-1.1 4h2l1.3-5.4c3.5-3.6 4.8-4.7 5.6-4.7.4 0 .6.2.6.6 0 .6-.4 2-.6 2.4l-1.3 3.9c-.3.9-.5 1.7-.5 2.3 0 .9.5 1.2 1.3 1.2 1.4 0 2.5-1.5 3.5-3l-.4-.3c-.4.6-1.2 1.7-1.8 1.7-.2 0-.4-.1-.4-.5 0-.5.2-1.2.4-1.6l1.4-4.6c.4-1.3.6-2.1.6-2.5 0-.9-.5-1.3-1.2-1.3-1.3 0-3 1-6.8 5.2l.5-2.1c.3-1.1.6-2.3.8-3.1-1.3.5-2.9.9-4 1.2v.8zm-11.7 6.6c0-2.1 2.1-7.8 4.7-7.8 1.2 0 1.7 1.4 1.7 2.4 0 3.2-3.1 7.6-4.9 7.6-1.2-.1-1.5-.9-1.5-2.2m6.8-6.2c-.2-1.4-1-2.1-2.2-2.1-3.7 0-6.7 5.9-6.7 9.1 0 1.3.7 3 2.3 3 2.5 0 4.1-3 4.9-4.1-.5 1.5-.8 2.4-.8 3 0 .7.4 1.2 1.1 1.2 1.1 0 2.2-1.2 3.3-2.8l-.4-.3c-.6.9-1.3 1.7-1.8 1.7-.3 0-.4-.2-.4-.4s.1-.6.4-1.4l2.6-8.8h-1.8l-.5 1.9zM256 3.4c.3-1.1.6-2.3.9-3.4-1 .5-2.8.9-4 1.2v.6c.2 0 .5-.1.8-.1.4 0 .7 0 .7.4 0 .3-.2 1-.2 1.3l-2.6 10.7c-.3 1.4-.7 2.9-1.1 4h2l1.3-5.4c3.5-3.6 4.8-4.7 5.6-4.7.4 0 .6.2.6.6 0 .6-.4 2-.6 2.4l-1.3 3.9c-.3.9-.5 1.7-.5 2.3 0 .9.5 1.2 1.3 1.2 1.4 0 2.5-1.5 3.5-3l-.4-.3c-.4.6-1.2 1.7-1.8 1.7-.2 0-.4-.1-.4-.5 0-.5.2-1.2.4-1.6l1.4-4.6c.4-1.3.6-2.1.6-2.5 0-.9-.5-1.3-1.2-1.3-1.3 0-3 1-6.8 5.2l1.8-8.1zm-18.4 4.8c.3 0 .6-.1.9-.1.4 0 .7.1.7.4 0 .2-.4 1.8-.5 2.1l-.9 3.4c-.4 1.4-.7 2.9-1.1 4h2l1.3-5.4c3.5-3.6 4.8-4.7 5.6-4.7.4 0 .6.2.6.6 0 .6-.4 2-.6 2.4l-1.3 3.9c-.3.9-.5 1.7-.5 2.3 0 .9.5 1.2 1.3 1.2 1.4 0 2.5-1.5 3.5-3l-.4-.3c-.4.6-1.2 1.7-1.8 1.7-.2 0-.4-.1-.4-.5 0-.5.2-1.2.4-1.6l1.4-4.6c.4-1.3.6-2.1.6-2.5 0-.9-.5-1.3-1.2-1.3-1.3 0-3 1-6.8 5.2l.5-2.1c.3-1.1.6-2.3.8-3.1-1.3.5-2.9.9-4 1.2v.8zm-14.7 8.3c-.2.9-.5 1.2-1.5 1.2h-.3v.6c2.3-.1 4.4-.1 6.5-.1 2.1 0 4.2 0 6.3.1.1-.9.6-2.8 1.1-4.2h-.6c-1.1 3.5-4.4 3.3-7.2 3.3H226c-.3 0-.5 0-.5-.3s.4-1.9.5-2.3l1.1-5.1h3.8c1.1 0 1.1.5 1.1.9s-.1.9-.2 1.2h.6c.1-.7.9-4.2 1.2-5h-.6c-.3 1.4-.7 2.1-2.7 2.1h-3l1.6-6.8c.1-.3.2-.4.6-.4h2.6c2.3 0 3.3.2 3.3 3h.6c0-.7.2-2.7.5-3.9-1.9.1-3.9.1-5.9.1-2 0-4 0-5.8-.1v.6h.4c.8 0 1.1.2 1.1.6 0 .5-.1 1.1-.4 2.6l-3 11.9zm-15.2 5.1c1.8-.6 4-2 4-4.2 0-1.1-.5-1.7-1.3-1.7-.9 0-1.5.7-1.5 1.6 0 .5.2 1 .8 1 .3 0 .6 0 .8-.3-.4 1.7-1.4 2.6-3 3.1l.2.5zm-8.8-7.8c0 1.4-.3 2.8-.5 4.2.3 0 .6-.1 1-.1.5 0 1 .1 1.4.3.5.1 1 .3 1.5.3 2 0 3.6-1.4 3.6-3.5 0-2.7-4.2-4.1-4.2-6.5 0-1 .8-1.5 1.8-1.5 1.6 0 2.5 1.4 2.5 3h.6c0-1.1.1-2.3.3-3.3-.3 0-.6.1-.9.1-.3 0-.8-.1-1.2-.2-.4-.1-.8-.1-1.3-.1-1.8 0-3.3.8-3.3 2.9 0 2.7 4.2 4.8 4.2 6.6 0 1.1-.9 1.7-1.9 1.7-1.9 0-3-2-2.9-3.9h-.7zm-10.7-1c.6-.7 4.2-4.8 5.2-4.8.4 0 .7.2.7.6 0 .6-.4 2-.6 2.4l-1.3 3.9c-.3.9-.5 1.7-.5 2.3 0 .9.5 1.2 1.3 1.2 1.4 0 2.5-1.5 3.5-3l-.4-.3c-.4.6-1.2 1.7-1.8 1.7-.2 0-.4-.1-.4-.5s.2-1.2.4-1.6l1.4-4.6c.4-1.3.6-2.1.6-2.5 0-.9-.5-1.3-1.2-1.3-2.4 0-5.2 3.6-6.5 5.2.3-1.2.9-3 .9-3.9 0-.9-.5-1.3-1.2-1.3-2.4 0-4.9 3.8-6 5.1l.5-2c.3-1.1.6-2.3.8-3.1-1.3.5-2.9.9-4 1.2v.6c.3 0 .6-.1.9-.1.4 0 .7.1.7.4 0 .2-.4 1.8-.5 2.1l-.9 3.4c-.4 1.4-.7 2.9-1.1 4h2l1.3-5.4c.7-.8 3.9-4.8 4.8-4.8.4 0 .7.2.7.6 0 .5-.1 1-.3 2.2l-1.2 5.2c-.2.7-.4 1.5-.6 2.1h2l.8-5zm-20.6 2c0-2.1 2.1-7.8 4.7-7.8 1.2 0 1.7 1.4 1.7 2.4 0 3.2-3.1 7.6-4.9 7.6-1.2-.1-1.5-.9-1.5-2.2m6.8-6.2c-.2-1.4-1-2.1-2.2-2.1-3.7 0-6.7 5.9-6.7 9.1 0 1.3.7 3 2.3 3 2.5 0 4.1-3 4.9-4.1-.5 1.5-.8 2.4-.8 3 0 .7.4 1.2 1.1 1.2 1.1 0 2.2-1.2 3.3-2.8l-.4-.3c-.6.9-1.3 1.7-1.8 1.7-.3 0-.4-.2-.4-.4s.1-.6.4-1.4l2.6-8.8h-1.8l-.5 1.9zm-11.4 6c-.8 1.2-2.4 2.5-3.9 2.5-1.8 0-2.6-1.2-2.6-2.6 0-.6 0-.9.2-1.3 3.2-.1 8-1.1 8-4.6 0-1.5-1.3-2.2-2.7-2.2-3.3 0-7.5 4-7.5 8.4 0 2.4 1.5 3.7 3.5 3.7 2.4 0 4.4-1.6 5.5-3.6l-.5-.3zm-.2-6.2c0 2.2-2.6 4.2-6 4.2.4-1.6 2.7-5.6 4.7-5.6.9 0 1.3.6 1.3 1.4m-15.7 5.7c-.4 1.4-.7 2.9-1.1 4h2l1.3-5.6c1.1-1.6 2.5-3.8 2.9-3.8s.3.8 1 .8c.9 0 1-1.1 1-1.8 0-.8-.1-1.3-.9-1.3-1.1 0-1.9 1.6-3.5 4.4.3-1.3.7-2.8 1.2-4.4-1.3.5-2.9.9-4 1.2v.6c.3 0 .6-.1.9-.1.4 0 .7.1.7.4 0 .2-.4 1.8-.5 2.1l-1 3.5zm-18.9 2.4c-.2.9-.5 1.2-1.5 1.2h-.3v.6c.8-.1 1.7-.1 2.5-.1h4c6.4 0 11.6-4.1 11.6-10.7 0-4.7-3-6.4-7.3-6.4-1.5 0-3 .1-4.5.1-.9 0-1.8 0-2.8-.1v.6h.4c.9 0 1.2.2 1.2.6 0 .4-.1 1.1-.5 2.6l-2.8 11.6zM134 2.2c.1-.4.3-.5 1.5-.5 4.4 0 6.4 1.8 6.4 6 0 4.6-3.2 9.7-8.8 9.7-1.4 0-2.1 0-2.1-1 0-.6.1-1.1.5-2.8L134 2.2zm-21.7 9.6c0-1.6.9-4.7 3-4.7 1 0 1.4.9 1.4 1.8 0 1.5-1 4.7-2.9 4.7-1 .1-1.5-.8-1.5-1.8m-1.8 8.2c0-1 .7-2 1.2-2.5 4.4 1.1 5.6 1.7 5.6 2.9 0 1.5-2.1 2.3-3.3 2.3-1.7 0-3.5-.7-3.5-2.7m2.1-3.8c-.8-.2-1-.3-1-.6 0-.2.2-.5.8-1.1.4.1.9.2 1.4.2 2.5 0 4.7-2.4 4.7-4.8 0-.8-.3-1.6-.9-2.2.2-.2.4-.4.6-.4.4 0 .3 1.1 1.2 1.1.5 0 .8-.4.8-1.1 0-.6-.5-1.1-1.1-1.1-.6 0-1.4.6-1.8 1.1-.6-.5-1.3-.8-2.2-.8-2.4 0-4.8 2.4-4.8 4.8 0 1.2.6 2.3 1.6 3-1.4.8-2 1.4-2 2 0 .5.3.9 1.4 1.2-1.5.3-2.9 1.4-2.9 3 0 2.4 2.6 3 4.6 3 2.4 0 5.6-1.2 5.6-4 0-1.5-1.4-2.2-2.9-2.6l-3.1-.7zm-16.4-8c.3 0 .6-.1.9-.1.4 0 .7.1.7.4 0 .2-.4 1.8-.5 2.1l-.9 3.4c-.4 1.4-.7 2.9-1.1 4h2l1.3-5.4c3.5-3.6 4.8-4.7 5.6-4.7.4 0 .6.2.6.6 0 .6-.4 2-.6 2.4L103 15c-.3.9-.5 1.7-.5 2.3 0 .9.5 1.2 1.3 1.2 1.4 0 2.5-1.5 3.5-3l-.4-.3c-.4.6-1.2 1.7-1.8 1.7-.2 0-.4-.1-.4-.5 0-.5.2-1.2.4-1.6l1.4-4.6c.4-1.3.6-2.1.6-2.5 0-.9-.5-1.3-1.2-1.3-1.3 0-3 1-6.8 5.2l.5-2.1c.3-1.1.6-2.3.8-3.1-1.3.5-2.9.9-4 1.2v.6zM94.1 2c0-.8-.5-1.3-1.3-1.3-.9 0-1.3.7-1.3 1.5 0 .7.4 1.2 1.2 1.2.9.1 1.4-.6 1.4-1.4m-1.8 7.6c.3-1.1.6-2.3.8-3.1-1.3.5-2.9.9-4 1.2v.6c.3 0 .6-.1.9-.1.4 0 .7.1.7.4 0 .2-.4 1.8-.5 2.1L89 15.3c-.3 1.2-.4 1.8-.4 2.1 0 .8.4 1.1 1.1 1.1 1.4 0 2.5-1.5 3.5-3l-.4-.3c-.4.6-1.2 1.7-1.8 1.7-.2 0-.4-.1-.4-.5 0-.3.1-.7.2-1.2l1.5-5.6zm-8.2-1.3c-.4-1.2-1.1-1.8-2.3-1.8-3.5 0-6.5 5.4-6.5 8.6 0 1.7.6 3.5 2.6 3.5 2.4 0 3.7-2.2 4.7-3.7-.2.3-.6 1.6-.6 2.5 0 .8.4 1.1 1.1 1.1 1.4 0 2.5-1.5 3.5-3l-.4-.3c-.4.6-1.2 1.7-1.8 1.7-.2 0-.4-.1-.4-.5 0-.3.1-.9.2-1.2l2.9-11.8c.3-1.1.6-2.2.9-3.4-1 .5-2.8.9-4 1.2v.6c.2 0 .5-.1.8-.1.4 0 .7 0 .7.4 0 .3-.2 1-.2 1.3l-1.2 4.9zm-.5 1.4c0 2.8-2 7.4-4.6 7.4-1.4 0-1.6-1.4-1.6-2.4 0-3 1.8-7.5 4.5-7.5.9 0 1.7.4 1.7 2.5m-9.5-6.3c.3-1.1.6-2.2.9-3.4-1 .5-2.8.9-4 1.2v.6c.2 0 .5-.1.8-.1.4 0 .7 0 .7.4 0 .3-.2 1-.2 1.3l-2.9 11.9c-.3 1.2-.4 1.8-.4 2.1 0 .8.4 1.1 1.1 1.1 1.4 0 2.5-1.5 3.5-3l-.4-.3c-.4.6-1.2 1.7-1.8 1.7-.2 0-.4-.1-.4-.5 0-.3.1-.9.2-1.2l2.9-11.8zM67.4 2c0-.8-.5-1.3-1.3-1.3-.9 0-1.3.7-1.3 1.5 0 .7.4 1.2 1.2 1.2.9.1 1.4-.6 1.4-1.4m-1.8 7.6c.3-1.1.6-2.3.8-3.1-1.3.5-2.9.9-4 1.2v.6c.3 0 .6-.1.9-.1.4 0 .7.1.7.4 0 .2-.4 1.8-.5 2.1l-1.2 4.6c-.3 1.3-.3 1.8-.3 2.1 0 .8.4 1.1 1.1 1.1 1.4 0 2.5-1.5 3.5-3l-.4-.3c-.4.6-1.2 1.7-1.8 1.7-.2 0-.4-.1-.4-.5 0-.3.1-.7.2-1.2l1.4-5.6zm-17 4.9c-.1.5-.4 1.7-.4 2.4 0 1 .7 1.7 1.8 1.7 2.8 0 5.3-3.8 6.1-5.2-.4 1.2-1 3.1-1 4.1 0 .8.4 1.1 1.1 1.1 1.4 0 2.5-1.5 3.5-3l-.4-.3c-.4.6-1.2 1.7-1.8 1.7-.2 0-.4-.1-.4-.5 0-.3.1-.9.2-1.2l1.4-5.7c.3-1.1.6-2.1.8-2.8h-1.8L56.4 12c-2.4 3.6-3.9 4.9-5.3 4.9-.7 0-.9-.5-.9-1.1 0-.5.3-1.4.4-1.8l1.2-4.4c.3-1.1.6-2.3.8-3.1-1.3.5-2.9.9-4 1.2v.6c.3 0 .6-.1.9-.1.4 0 .7.1.7.4 0 .2-.4 1.8-.5 2.1l-1.1 3.8zM39.8 2c0-.2.2-.4.7-.4 2 0 3.5.4 3.5 2.7 0 2.9-2.1 4.3-5 4.3-.5 0-.6-.1-.6-.4 0-.2 0-.5.1-1L39.8 2zM38 9.9c.1-.4.3-.4 1.3-.4 2.3 0 3.8.8 3.8 3.1 0 3.1-1.8 4.9-4.8 4.9-.8 0-1.8 0-1.8-.6 0-.5.2-1.5.4-1.9L38 9.9zm7.8 2.9c0-2.4-1.8-3.6-4-3.8v-.1c2.7-.4 4.8-1.9 4.8-4.6 0-2.4-1.9-3.3-4.8-3.3-1.3 0-2.4.1-3.6.1-.9 0-1.8 0-2.7-.1v.6h.5c.9 0 1.2.2 1.2.6 0 .4-.1 1.1-.5 2.6l-2.3 10.1c-.5 2.4-.6 2.8-1.6 2.8h-.3v.6c.7-.1 1.5-.1 2.2-.1h3.9c4.8-.1 7.2-2.7 7.2-5.4"/><g fill="#022169"><path d="M4.9 38.7c0-4.5-.7-5-2.2-5.4C1 32.8.5 32.8.5 32.1c0-.9.6-1.1 1.7-1.1 2.2 0 4.5.4 6.7.4s4.5-.4 6.7-.4c11.5 0 19 4.3 19 15 0 11.2-9.1 16.8-18.2 16.8-4.7 0-8-.4-9.5-.4-1.3 0-2.8.4-4.2.4-.8 0-1.4 0-1.4-.5 0-.7.9-.9 1.6-1.2 1.7-.6 1.8-3.2 1.8-4.9V38.7zm6.9 17.2c0 3.9 1.6 4.6 5.4 4.6 6.7 0 10-6.9 10-12.8 0-6.9-3.5-14.6-11.8-14.6-2.9 0-3.6 1.3-3.6 3.7v19.1zM54.2 58c0 1.2 0 1.8.9 1.8.5 0 1.2-.2 1.6-.2.5 0 .8.1.8.5 0 .8-2.2 2.7-5.5 2.7-1.4 0-3.2-1.1-3.7-2.5-1.9 1.7-4.7 2.8-7.2 2.8-2.8 0-4.9-2-4.9-4.8 0-6.7 7.1-6.6 11.9-8v-2.6c0-2.1-1.7-3.9-3.7-3.9-1.2 0-1.4.4-1.4 2.1 0 .6 0 1.3-.4 1.9-.5.8-3.2 1.3-4.1 1.3-.9 0-1.6-.3-1.6-1.5 0-5 6.8-5.7 10.2-5.7 5.3 0 7.2 2.8 7.2 7.8V58zM48 52.5c-2.6 0-5.7 1.9-5.7 4.7 0 1.7.7 2.9 2.6 2.9 1 0 3.1-.5 3.1-1.9v-5.7zM68.8 61.7c-.4.6-1.1 1.6-1.5 1.6-.3 0-.9-.7-1.2-1.4l-8.3-15.8C56.4 43.8 55 44 55 43.3c0-.6.3-.8 2-.8 2.1 0 3.6.4 5.1.4 1.5 0 3.1-.4 4.6-.4 1 0 1.6.1 1.6.8 0 .5-.7.9-1.6 1.1-1.1.2-1.5.9-1.5 1.6 0 .7.2 1.5.6 2.3l3.5 6.4c.2.4.5.9.8.9.5 0 .7-.6.9-1l3.4-5.7c.5-.7.6-1.4.6-2.5 0-1-1-1.8-1.8-2-.9-.2-1.8-.3-1.8-1.1 0-.5.3-.8 1.5-.8 1.1 0 2.2.4 3.3.4 1.1 0 2.1-.4 3.2-.4.9 0 1.1.2 1.1.8 0 .6-.5.7-.8 1.1-.5.5-.9 1-1.5 2l-9.4 15.3zM83.9 47.5c0-.8-.6-1.1-1.3-1.2-1.2-.1-1.3-.4-1.3-1 0-.7.9-1 1.7-1.1 1.3-.1 4-1.1 5.2-1.7.4-.2.9-.4 1.4-.4.4 0 .5.6.5 2.7v13.4c0 2 .9 2.5 1.8 2.8.9.3 1.8.4 1.8 1.1 0 .7-.6.7-1.1.7-1.7 0-3.4-.4-5.1-.4-1.7 0-3.4.4-5.1.4-.8 0-1-.4-1-.7 0-.7.5-.9 1.3-1.1.6-.2 1.3-.6 1.3-1.7V47.5zm6.6-12.7c0 1.2-2.3 3.9-3.6 3.9-1.3 0-3.6-2.7-3.6-3.9 0-1.3 2.3-4.1 3.6-4.1 1.3 0 3.6 2.8 3.6 4.1zM107.7 33.9c0-1.1-.6-1.2-1.3-1.2-.7 0-1.3-.1-1.3-1 0-.7.9-1 1.7-1.1 1.4-.1 3.9-1.1 5.2-1.7.4-.2.9-.4 1.4-.4.3 0 .5.5.5 2.8v26.8c0 1.4.7 1.6 1.1 1.7.8.1 1.8.2 1.8 1s-1 1-1.5 1.1c-.5.1-2.4.2-4.8.7-1.5.4-2.6.7-2.8.7-.2 0-.5-.1-.5-.5 0-.2 0-.5.1-1l.5-2.3h-.1c-1.4 2-3.7 3.7-6.3 3.7-5.8 0-8.4-4.7-8.4-9.1 0-7.6 5.2-12 10.2-12 1.6 0 3.1.4 4.5 1v-9.2zm0 15.7c0-3.2-1-5.6-4.3-5.6-4 0-4.9 4-4.9 6.8 0 3.4 1.7 8.5 5.9 8.5 2.9 0 3.3-2.2 3.3-4.7v-5z"/></g><g fill="#022169"><path d="M126.4 35.3c-.5-1.6-1.4-2-2-2.4-.5-.3-1.1-.4-1.1-1.1 0-.7.6-.7 1.2-.7 1.8 0 3.6.4 5.4.4 1.8 0 3.6-.4 5.4-.4.8 0 1.2 0 1.2.7s-.7.9-1.4 1.1c-1.3.4-1.5 1.2-1.5 2.1 0 .4.5 1.3 1 2.9l5.2 15c.1.4.3.8.4.8.1 0 .4-.5.5-1l4.6-10.1-2.5-7.3c-.5-1.6-1.4-2-2-2.4-.5-.3-1.1-.4-1.1-1.1 0-.7.6-.7 1.2-.7 1.8 0 3.6.4 5.4.4 1.8 0 3.6-.4 5.4-.4.8 0 1.2 0 1.2.7s-.7.9-1.4 1.1c-1.3.4-1.4 1.3-1.4 1.9 0 .7.7 2.3 1 3.1l4.9 13.8c.2.6.3.9.5.9.3 0 .6-.8.9-1.6l4.2-11.9c.5-1.3.7-2.5.7-3.5 0-2-2.5-1.8-3.5-2.4-.8-.5-1.3-.9-1.3-1.3 0-.7.5-.7 1-.7 1.6 0 3.1.4 4.7.4s3.1-.4 4.7-.4c.4 0 1.1 0 1.1.7s-1 .7-1.9 1.6c-1.3 1.2-1.5 1.9-2.7 5l-8.6 22.2c-1 2.4-1.3 2.7-1.8 2.7s-1-.2-1.6-1.9L147.2 47c-.3-.8-.5-1.2-.6-1.2-.2 0-.4.5-.8 1.4L139.4 61c-1 2.2-1.3 2.5-1.9 2.5-.6 0-.8-.3-1.5-2.1l-9.6-26.1zM168 51.8v1.7c0 3.6 3.7 6.5 7.2 6.5 3.7 0 6.2-2.6 6.5-2.6.2 0 .5.3.5.5 0 1.6-4.2 5.3-9.9 5.3-6.4 0-10.5-3.5-10.5-10.1 0-6 4.2-11 10.3-11 4.4 0 10 3.1 10 8.1 0 1.1-.4 1.5-2.5 1.5H168zm7.6-1.8c.2 0 .3-.8.3-1.1 0-2.7-1.5-4.8-4-4.8-2.8 0-4.1 3-4.1 5.1 0 .7.5.9 1.1.9h6.7zM190 51.8v1.7c0 3.6 3.7 6.5 7.2 6.5 3.7 0 6.2-2.6 6.5-2.6.2 0 .5.3.5.5 0 1.6-4.2 5.3-9.9 5.3-6.4 0-10.5-3.5-10.5-10.1 0-6 4.2-11 10.3-11 4.4 0 10 3.1 10 8.1 0 1.1-.4 1.5-2.5 1.5H190zm7.7-1.8c.2 0 .3-.8.3-1.1 0-2.7-1.5-4.8-4-4.8-2.8 0-4.1 3-4.1 5.1 0 .7.5.9 1.1.9h6.7zM206.4 33.8c0-.8-.8-1-1.4-1.1-.7-.2-1.4-.2-1.4-1 0-.7.9-1 1.8-1.1 1.4-.2 4.2-1.1 5.4-1.7.4-.1 1-.4 1.3-.4.3 0 .5.2.5 2.2v20.5l6.7-4.7c.6-.4 1.4-1.1 1.4-1.6 0-.4-.6-.5-1.1-.5-.8 0-1.3-.5-1.3-1.1 0-.4.2-.7 1.1-.7 1.4 0 2.8.2 4.3.2 1.4 0 2.8-.2 4.3-.2.9 0 1.2.2 1.2.5 0 .8-.4 1.2-1.4 1.4-1.1.2-2.5.6-4.8 2l-3.1 1.9 6.3 10.3c.6 1.1 1.4 1.7 2.3 2.5 1.1.9 2.7.1 2.7 1 0 .5-.2.7-1.4.7-1.1 0-2.3-.2-3.4-.2s-2.3.2-3.4.2-1.4-.2-1.8-.8l-5.5-8.4c-.3-.4-.5-.8-.7-.8-.1 0-.3.2-.5.2l-1.8 1v4.2c0 2 1.1 2.5 2 2.8.9.3 1.9.4 1.9 1.1 0 .5-.3.7-1.2.7-1.8 0-3.5-.4-5.3-.4-1.7 0-3.5.4-5.3.4-.7 0-1.1-.2-1.1-.7 0-.7.5-.9 1.3-1.1.6-.1 1.4-.6 1.4-1.7V33.8zM233.4 33.9c0-.8-.6-1.1-1.3-1.2-.7 0-1.3-.1-1.3-1 0-.7.9-1 1.7-1.1 1.3-.2 4-1.1 5.2-1.7.4-.2.9-.4 1.4-.4.3 0 .5.6.5 2.7v27c0 2 .9 2.5 1.8 2.8.9.3 1.8.4 1.8 1.1 0 .7-.6.7-1.1.7-1.7 0-3.4-.4-5.1-.4-1.7 0-3.4.4-5.1.4-.5 0-1 0-1-.7s.5-.9 1.3-1.1c.6-.2 1.3-.6 1.3-1.7V33.9zM247.7 51.8v1.7c0 3.6 3.7 6.5 7.2 6.5 3.7 0 6.2-2.6 6.5-2.6.2 0 .5.3.5.5 0 1.6-4.2 5.3-9.9 5.3-6.4 0-10.5-3.5-10.5-10.1 0-6 4.2-11 10.3-11 4.4 0 10 3.1 10 8.1 0 1.1-.4 1.5-2.5 1.5h-11.6zm7.7-1.8c.2 0 .3-.8.3-1.1 0-2.7-1.5-4.8-4-4.8-2.8 0-4.1 3-4.1 5.1 0 .7.5.9 1.1.9h6.7zM278.3 50.6c.6-1.2 1.3-2.5 1.3-3.7 0-.9-.5-1.5-1.7-2.3-.6-.4-1.7-.6-1.7-1.3 0-.5.2-.7 1.5-.7 1.1 0 2.1.4 3.2.4s2.1-.4 3.2-.4c1 0 1.2.1 1.2.7 0 .5-.7.6-1.4 1.3-.8.8-1.6 2.3-2.2 3.6l-10.4 21.2c-1 2.1-1.2 2.2-3.2 2.2-.8 0-1.5-.3-1.5-.8 0-.9 4.4-5.3 5.3-7.3.1-.3.2-.6.2-.9 0-.6-.3-1.3-.7-1.9L262.9 46c-.3-.5-.5-.9-1-1.3-.4-.3-1.4-.6-1.4-1.3 0-.6.4-.7 1.2-.7 1.7 0 3.5.4 5.3.4 1.8 0 3.5-.4 5.3-.4.5 0 .7.2.7.7 0 .9-.7 1.1-2.1 1.3-.3 0-.5.4-.5.8s.1 1 .4 1.5l4.1 7.5c.3.5.5.8.7.8.2 0 .4-.2.6-.7l2.1-4z"/></g><g fill="#022169"><path d="M315.9 44.4c1.6 0 2.2-.4 2.2-1.4v-6.3c0-2.8-1.6-3.7-3.5-3.8-.6 0-1-.4-1-1.1 0-.7 1.3-.7 2.7-.7 1.8 0 3.7.4 5.5.4s3.7-.4 5.5-.4c.6 0 1.3 0 1.3.7s-.8 1-1.2 1.1c-1.4.4-2.3 2-2.3 3.8v20.6c0 2.8 1.6 3.7 3.5 3.8.6 0 1 .4 1 1.1 0 .7-1.3.7-2.7.7-1.8 0-3.7-.4-5.5-.4s-3.7.4-5.5.4c-.6 0-1.3 0-1.3-.7s.8-1 1.2-1.1c1.8-.5 2.3-2.3 2.3-3.8v-8.8c0-1.5-.3-1.6-1.6-1.6h-11.2c-.8 0-.9.8-.9 1.5v8.9c0 2.8 1.6 3.7 3.5 3.8.6 0 1 .4 1 1.1 0 .7-1.3.7-2.7.7-1.8 0-3.7-.4-5.5-.4-1.8 0-3.7.4-5.5.4-.6 0-1.3 0-1.3-.7s.8-1 1.2-1.1c1.8-.5 2.3-2.3 2.3-3.8V36.7c0-2.8-1.6-3.7-3.5-3.8-.6 0-1-.4-1-1.1 0-.7 1.3-.7 2.7-.7 1.8 0 3.7.4 5.5.4 1.8 0 3.7-.4 5.5-.4.6 0 1.3 0 1.3.7s-.8 1-1.2 1.1c-1.8.5-2.3 2.3-2.3 3.8V43c0 .9.5 1.4 1.7 1.4h9.8zM350.7 52.1c0 5.9-4.7 11.2-11.2 11.2-6.2 0-11.9-4.1-11.9-10.6 0-6.3 4.9-10.6 11.6-10.6 5.4.1 11.5 3.6 11.5 10zm-16.9-.2c0 5.4 2.8 9.6 5.9 9.6 3.9 0 4.8-3.6 4.8-7.5 0-5.8-2.4-10-5.9-10-3.8 0-4.8 3.6-4.8 7.9zM353.5 47c0-.8-.6-1-1.3-1.1-.7-.1-1.3-.2-1.3-.9 0-.6.9-1 1.7-1.1 3.8-.8 4.1-1.1 5.2-1.3.4-.1.9-.3 1.4-.3.2 0 .4.5.4 1.1v2.4c2.4-2.1 3.8-3.5 7-3.5 3.9 0 5.4 4.2 5.9 4.2.4 0 3.1-4.2 6.7-4.2 5.1 0 7.7 3.2 7.7 8.6v8.7c0 1 .7 1.5 1.3 1.6.7.1 1.3.4 1.3 1.1 0 .5-.3.7-1.1.7-1.6 0-3.1-.4-4.7-.4s-3.1.4-4.7.4c-.7 0-1-.2-1-.7 0-.7.5-1 1.3-1.1.6-.1 1.3-.6 1.3-1.6v-8.7c0-3.8-2.1-5.3-3.5-5.3-3.5 0-3.9 3.1-3.9 5.3v8.7c0 1 .7 1.5 1.4 1.6.7.1 1.3.4 1.3 1.1 0 .5-.2.7-1.1.7-1.6 0-3.1-.4-4.7-.4s-3.1.4-4.7.4c-.7 0-1-.2-1-.7 0-.7.5-1 1.3-1.1.6-.1 1.3-.6 1.3-1.6v-8.7c0-2.5-1-5.3-4-5.3-1.8 0-3.4 1.9-3.4 3.7v9.6c0 1.6.9 2.1 1.8 2.3.9.3 1.8.4 1.8 1.1 0 .5-.3.7-1.1.7-1.7 0-3.4-.4-5.1-.4-1.7 0-3.4.4-5.1.4-.7 0-1-.2-1-.7 0-.7.5-1 1.3-1.1.6-.1 1.3-.6 1.3-1.6V47zM395.4 51.8v1.7c0 3.6 3.7 6.5 7.2 6.5 3.7 0 6.2-2.6 6.5-2.6.2 0 .5.3.5.5 0 1.6-4.2 5.3-9.9 5.3-6.4 0-10.5-3.5-10.5-10.1 0-6 4.2-11 10.3-11 4.4 0 10 3.1 10 8.1 0 1.1-.4 1.5-2.5 1.5h-11.6zm7.7-1.8c.2 0 .3-.8.3-1.1 0-2.7-1.5-4.8-4-4.8-2.8 0-4.1 3-4.1 5.1 0 .7.5.9 1.1.9h6.7zM420 42.2c1 0 4.7.5 4.7 1.9 0 .7.2 2.7.2 3.4 0 .5-.1 1-.7 1-.4 0-.8-1.1-1.6-2.3-.8-1.2-2.1-2.1-4.3-2.1-1.3 0-2.7.5-2.7 2 0 3.5 10.7 2.1 10.7 10.2 0 4.8-3.7 7.2-8.1 7.2-1.3 0-2.7-.2-3.5-.4-.6-.2-1-.2-1.3-.2h-.8c-.6 0-.7-.7-.7-1.4 0-2.1-.1-3.7-.1-5 0-.3.4-.6.7-.6 1.4 0 1.6 1.5 2.1 3s1.6 2.8 4.6 2.8c1.5 0 3.2-1 3.2-2.7 0-4.2-10.7-2.2-10.7-10-.1-5.3 3.9-6.8 8.3-6.8z"/></g><linearGradient id="SVGID_3_" gradientUnits="userSpaceOnUse" x1="83.491" y1="-78.745" x2="352.048" y2="-78.745" gradientTransform="matrix(1.1 0 0 1.1 -21.447 165.879)"><stop offset="0" stop-color="#ED1A39"/><stop offset=".037" stop-color="#ED2F39"/><stop offset=".228" stop-color="#EE6A39"/><stop offset=".413" stop-color="#EF8C37"/><stop offset=".587" stop-color="#F0A532"/><stop offset=".748" stop-color="#F2B82D"/><stop offset=".89" stop-color="#F3C329"/><stop offset="1" stop-color="#F3C727"/></linearGradient><path fill="url(#SVGID_3_)" d="M78 89.2s-15.6-2.5-2-6.7c0 0 3.3 0 8.8-3.6 0 0-1-.9 1.8-1.2 0 0 7.1-2.6 11.1-4.2 0 0 7.8.1 13.1-1.9 0 0 11.8.3 13.9-1.2 0 0 14.6-1.7 21.4-1.7s30-.4 31.3.1c1.3.6 15.9.1 16.9.7 1 .6 4.8-.3 6.3 1.5 1.5 1.7-2-.4 4.5-.1 6.6.3 1-1 5-.4s6.8.4 8.6 2.5c0 0 5.8-.1 5.3-.3-.5-.1-2-1.2-1.3-1.2s3.3-.9 3.5.1c.3 1 1.5 1.3 2.8.9 1.3-.4 4.5-.7 5.3-.3.8.4.3 1.3 2 1.5 1.8.1 6.3-.9 7.3-.7 1 .1 4.5-.7 5.8.6 1.3 1.3 4.3.3 4.3.3s6.3-.1 6.3.4c0 .6 14.6-.4 15.4.9s12.3-1.2 12.6.3c.3 1.5-3.3.6-3.3.6l-.3 1.3s5.8-1.5 6.8-1c1 .4 2.5-1 3.5-.6s.3 1.5.3 1.5-1.8 0-2.8.4c-1 .4-4.8 1-4.8.6s-1.5-.9-2.5-.1c-1 .7-.5 1.5-5.8.9s-5 .4-5 .4-4-1.3-5-.9-1.3 1.7-2.3 1c-1-.7-4-1.2-4.3-.6-.3.6 1.8.9 3 .7 1.3-.1 3 1.2 4.3.9 1.3-.3 3.5-1 3.3-.3-.3.7-2.5 1.6-3.5 1.3-1-.3 2.3.4.5.7-1.8.3-5.5 1.3-5.3.4.2-.9.2-1.7-.8-1.7s-2.8-1.3-6.8-.4-1 .4-2.3.3c-1.3-.1-3.3-.4-4.8 0s1.3 1.5-2.5 1.3c-3.8-.1-.5.4-2 .3-1.5-.1-4.8.3-5-.3-.3-.6-2.8-.7-3.5-.3-.8.4-2.8 1.3-5 1.2-2.3-.1-7.8.9-7.6.3.3-.6 0-.7 0-.7s-7.3-.3-8.3.1c-1 .4-1.8.3-2.8.4-1 .1-7.8.4-8.6-.1 0 0-4.3-1.3-4.8-.4s-2 1.3-3.3 1.3c-1.3 0 .3-.4 1.8-.9 1.5-.4 0-.9 0-.9s-5.5-1-4.5 1.2-3 .7-3 .7-15.1.7-14.4.1 1-.6 1-.6l1.5-.1s.3-1.2-1-.7c-1.3.4-13.9-.1-15.6 1-1.8 1.2 0 1.2 0 1.2s-.3 1.2-5.5-.4c-5.3-1.6-1.8-.4-1.8-.4s-13.4 2.2-16.1 2.6c-2.8.4-1.8 1.3-5.3 1.3s.5-2 2.3-1.7c1.8.3.8-.7.8-.7s-4-1.2-6.8-.1c-2.8 1-3.8.4-3.8.4s3.5 1.7-.8 1.3c-4.3-.4-4.3-1-4.3-1s-11.8-.4-10.8.4c1 .9 2 1.3 2 1.3s-2.3.3-3.3-.3-2.5.7-4 .6c-1.5-.1-2.3.4-3.3.1-1-.3-8.1-.7-8.3.6-.3 1.3-7.3-.7-7.8.6-.7 1.2-7.7-.4-7.7-.4zm130.3-4.5c-.5.9 1.5-.3 3.5.6 2 .9 0-1.3-.3-1.5-.3-.1-1-.1-2.8 0 .1 0 .1 0-.4.9zm67.8-4.5s-1 .6 0 .9c1 .3 4-.1 4-.1s1.8-.3.5-.7c-1.2-.6-4.5-.1-4.5-.1zm24.2.5c5.8.1-.8-.7-1.8-1.5-1-.7 5.5-1.3 5.8-.1.3 1.2 2.5 1.3 4.3.4 1.8-.9 3.5.9 4.8.7 1.3-.1-1-1.5 2.8-1.3 3.8.1 6.6 2 6.6 2l3.3-.1s-.3-.4-.8-1.3 1.5-.4 2.5-.1c1 .3-1.3 1-1.8 1.5-.5.4 5.3 1.2 5-.3-.3-1.5 3.3-.3 7.1.1s2.5-.1 1.5-1.5c-1-1.3-2.3.3-2.8 1s-1.5-1.2-1.3-1.9c.3-.7-9.6-.9-10.6-.3-1 .6-5-.3-4.8-1 .3-.7-2.8-.1-3-.7-.3-.6-3.3-.1-3.3-.1s1.3 1.6-4.5.3-6.6 1-6.6 1l-7.8-.4c-6 3-2.5 3.3-2.5 3.3s2.1.2 7.9.3zm42.1 2.7c.8.1 6.3-.1 6.8-1s3.5 0 3.5 0l4.3 1.7s5.3-.4.8-2.3-15.4-.6-15.4-.6-.8 2 0 2.2zm18.4.1s.5 1 3.3 1 1.5-.4 1.3-1c-.3-.6-4-.4-4-.4m-161.7.6v1s2.3.1 3.3.1 0-1 0-1l-2-.1h-1.3z"/></svg>