<?xml version="1.0" encoding="utf-8"?>
<!-- Generator: Adobe Illustrator 18.0.0, SVG Export Plug-In . SVG Version: 6.00 Build 0)  -->
<!DOCTYPE svg PUBLIC "-//W3C//DTD SVG 1.1//EN" "http://www.w3.org/Graphics/SVG/1.1/DTD/svg11.dtd">
<svg version="1.1" id="Layer_1" xmlns="http://www.w3.org/2000/svg" xmlns:xlink="http://www.w3.org/1999/xlink" x="0px" y="0px"
	 viewBox="0 0 237 268" enable-background="new 0 0 237 268" xml:space="preserve">
<g>
	<g>
		<rect x="134.6" y="48" fill="#FFFFFF" width="15.6" height="0"/>
		<path fill="#FFFFFF" d="M80.3,142.2c6.3,0,11.8,3.1,15.1,7.9c3.3-3,7.6-4.9,12.4-4.9c8.2,0,15.2,5.2,17.5,12.7
			c7.9-5,14.2-22.9,12.9-37.9h-4.9h-1.7H108l17.3-28.8l6.6-10.7V34l0-0.7l9.2-19l1.5-3.1l1.5,3.1l9,19L153,34v47.4l6.1,9.8
			l17.4,28.8h-23h-1.7h-5.5c-0.1,8,0.7,25.1,12,41.3c2.6-3.1,6.4-5,10.8-5c3.2,0,6.2,1.2,8.6,3c2.8-11.7,13.2-20.3,25.7-20.3
			c5.5,0,10.6,1.7,14.8,4.5c9.5-14.6,15.1-32,15.1-50.8c0-51.4-41.6-93-93-93s-93,41.6-93,93c0,21,7,40.4,18.8,56
			C69.5,144.8,74.6,142.2,80.3,142.2z"/>
		<polygon fill="#FFFFFF" points="149,34.4 142,18.9 135,34.4 135,42 149,42 		"/>
		<rect x="135" y="84" fill="#FFFFFF" width="5" height="34"/>
		<rect x="145" y="84" fill="#FFFFFF" width="4" height="34"/>
		<polygon fill="#FFFFFF" points="135,79 140,79 140,67 145,67 145,79 149,79 149,54 135,54 		"/>
	</g>
	<g>
		<path fill="#FFFFFF" d="M27.9,223.1v29.5c0,4-0.1,6.6-0.3,7.7c-0.2,1.2-0.8,2.4-2,3.7c-1.1,1.3-2.7,2.3-4.7,3s-4.5,1-7.5,1
			c-3.7,0-6.7-0.6-9-1.9c-2.3-1.3-3.4-3.7-3.5-7.4h11.3c0,1.7,0.6,2.5,1.9,2.5c0.9,0,1.5-0.3,1.8-0.8c0.3-0.5,0.4-1.6,0.4-3.3v-2.9
			c-1,0.9-2.1,1.6-3.2,2.1c-1.1,0.5-2.3,0.7-3.5,0.7c-2.1,0-3.8-0.4-5.2-1.3c-1.4-0.8-2.3-2-2.8-3.3c-0.5-1.4-0.8-3.3-0.8-5.9v-13.9
			c0-3.6,0.7-6.3,2-7.9c1.3-1.6,3.3-2.4,6-2.4c1.5,0,2.8,0.3,4,0.9c1.2,0.6,2.3,1.5,3.2,2.7l0.8-2.9H27.9z M16.1,233.3
			c0-1.8-0.1-2.9-0.3-3.4c-0.2-0.5-0.7-0.7-1.3-0.7c-0.7,0-1.2,0.3-1.4,0.8c-0.3,0.5-0.4,1.6-0.4,3.3v12.9c0,1.7,0.1,2.8,0.3,3.3
			c0.2,0.5,0.7,0.8,1.3,0.8c0.8,0,1.3-0.3,1.5-0.9c0.2-0.6,0.3-2,0.3-4.2V233.3z"/>
		<path fill="#FFFFFF" d="M44,214.7v6.1H32v-6.1H44z M44,223.1v38.4H32v-38.4H44z"/>
		<path fill="#FFFFFF" d="M72.4,223.1l-5.5,38.4H51.7l-5.9-38.4h10.4l3.3,28c0.3-2.1,0.7-7.1,1.3-15.1c0.3-4.5,0.7-8.8,1.1-13H72.4z
			"/>
		<path fill="#FFFFFF" d="M100.6,243H85.4v8.3c0,1.7,0.1,2.9,0.4,3.4c0.3,0.5,0.7,0.8,1.4,0.8c0.9,0,1.5-0.3,1.8-1
			c0.3-0.7,0.4-2,0.4-3.9v-5.1h11.1v2.8c0,2.4-0.1,4.2-0.4,5.5s-1,2.6-2.1,4.1c-1.1,1.4-2.5,2.5-4.2,3.3c-1.7,0.7-3.8,1.1-6.3,1.1
			c-2.5,0-4.6-0.4-6.5-1.1c-1.9-0.7-3.4-1.7-4.4-2.9c-1.1-1.2-1.8-2.6-2.2-4.1c-0.4-1.5-0.6-3.7-0.6-6.5v-11.2c0-3.4,0.5-6,1.4-7.9
			c0.9-1.9,2.4-3.4,4.5-4.5c2.1-1,4.4-1.5,7.1-1.5c3.3,0,6,0.6,8.1,1.9c2.1,1.2,3.6,2.9,4.5,4.9c0.9,2.1,1.3,4.9,1.3,8.7V243z
			 M88.9,236.7v-2.8c0-2-0.1-3.3-0.3-3.8c-0.2-0.6-0.6-0.9-1.3-0.9c-0.8,0-1.3,0.2-1.5,0.7c-0.2,0.5-0.3,1.8-0.3,4v2.8H88.9z"/>
		<path fill="#FFFFFF" d="M130.2,237.6h-11v-4.4c0-1.5-0.1-2.6-0.4-3.1c-0.3-0.5-0.7-0.8-1.4-0.8c-0.7,0-1.1,0.2-1.4,0.7
			c-0.2,0.5-0.3,1.6-0.3,3.2v18.1c0,1.4,0.2,2.4,0.5,3.1c0.3,0.7,0.9,1,1.5,1c0.8,0,1.3-0.4,1.6-1.1c0.3-0.7,0.4-2.1,0.4-4v-4.6
			h10.4c0,3.1-0.1,5.4-0.3,6.9c-0.2,1.5-0.8,3.1-1.9,4.7c-1.1,1.6-2.5,2.8-4.3,3.6c-1.8,0.8-3.9,1.2-6.5,1.2c-3.3,0-5.9-0.6-7.8-1.7
			c-1.9-1.1-3.3-2.7-4.1-4.7c-0.8-2-1.2-4.9-1.2-8.7v-10.9c0-3.3,0.3-5.7,1-7.4c0.7-1.7,2.1-3.1,4.2-4.4c2.1-1.3,4.7-2,7.8-2
			c3,0,5.6,0.6,7.8,1.9c2.2,1.3,3.6,2.9,4.3,4.9C129.8,231.2,130.2,234,130.2,237.6z"/>
		<path fill="#FFFFFF" d="M144.1,238h-11v-2.6c0-3,0.3-5.3,1-6.9c0.7-1.6,2.1-3,4.1-4.3c2.1-1.2,4.7-1.9,8-1.9c4,0,6.9,0.7,8.9,2.1
			c2,1.4,3.2,3.1,3.6,5.1c0.4,2,0.6,6.2,0.6,12.6v19.3h-11.4V258c-0.7,1.4-1.6,2.4-2.8,3.1c-1.1,0.7-2.5,1-4,1c-2,0-3.9-0.6-5.6-1.7
			c-1.7-1.1-2.6-3.7-2.6-7.5v-3.2c0-2.9,0.5-4.8,1.4-5.9c0.9-1,3.2-2.3,6.7-3.6c3.8-1.5,5.9-2.5,6.2-3c0.3-0.5,0.4-1.6,0.4-3.2
			c0-2-0.1-3.3-0.4-3.9c-0.3-0.6-0.8-0.9-1.5-0.9c-0.8,0-1.3,0.3-1.5,0.8c-0.2,0.5-0.3,1.8-0.3,4V238z M147.8,243.2
			c-1.9,1.4-3,2.5-3.3,3.4c-0.3,0.9-0.4,2.3-0.4,4c0,2,0.1,3.3,0.4,3.8c0.3,0.6,0.8,0.9,1.5,0.9c0.7,0,1.2-0.2,1.4-0.7
			c0.2-0.5,0.3-1.6,0.3-3.6V243.2z"/>
		<path fill="#FFFFFF" d="M175,223.1l-0.2,3.6c0.9-1.4,2-2.5,3.2-3.3c1.3-0.7,2.7-1.1,4.3-1.1c3.1,0,5.6,1.4,7.4,4.3
			c1-1.4,2.1-2.5,3.3-3.3c1.2-0.7,2.6-1.1,4.1-1.1c2,0,3.6,0.5,4.9,1.4c1.3,1,2.1,2.1,2.5,3.5c0.4,1.4,0.5,3.7,0.5,6.8v27.3h-11.3
			v-25c0-3.3-0.1-5.3-0.3-6.1s-0.7-1.2-1.5-1.2c-0.8,0-1.4,0.4-1.6,1.2c-0.2,0.8-0.4,2.8-0.4,6.1v25h-11.3v-24.4
			c0-3.8-0.1-6-0.3-6.8c-0.2-0.8-0.7-1.1-1.5-1.1c-0.5,0-1,0.2-1.3,0.6c-0.4,0.4-0.6,0.9-0.6,1.4c0,0.6-0.1,1.8-0.1,3.6v26.6h-11.3
			v-38.4H175z"/>
		<path fill="#FFFFFF" d="M221,223.1l-0.2,3.4c1-1.4,2.2-2.4,3.4-3.1c1.3-0.7,2.6-1,4.1-1c1.8,0,3.4,0.5,4.7,1.5
			c1.3,1,2.1,2.1,2.5,3.4c0.3,1.3,0.5,3.4,0.5,6.5v16.2c0,3.5-0.2,6-0.6,7.4c-0.4,1.5-1.3,2.6-2.5,3.5s-2.8,1.3-4.6,1.3
			c-1.4,0-2.8-0.3-4-1c-1.2-0.7-2.4-1.7-3.4-3v8.8h-11.7v-43.8H221z M224.3,234.3c0-2.4-0.1-3.8-0.3-4.3c-0.2-0.5-0.7-0.8-1.4-0.8
			c-0.8,0-1.3,0.3-1.5,0.9c-0.2,0.6-0.3,2-0.3,4.2v15.9c0,2.3,0.1,3.8,0.3,4.3c0.2,0.6,0.7,0.9,1.5,0.9c0.8,0,1.2-0.3,1.4-0.8
			c0.2-0.5,0.3-1.8,0.3-3.9V234.3z"/>
	</g>
	<g>
		<path fill="#FFFFFF" d="M57.5,168.1v10.2c1-0.9,2-1.6,3.1-2c1.1-0.4,2.3-0.7,3.6-0.7c2,0,3.7,0.5,5.1,1.5c1.4,1,2.2,2.2,2.5,3.5
			c0.3,1.3,0.5,3.7,0.5,7.2v25.6H61.1v-26.1c0-2.2-0.1-3.6-0.3-4.2c-0.2-0.6-0.7-0.9-1.4-0.9c-0.7,0-1.2,0.3-1.4,1
			c-0.2,0.6-0.4,1.9-0.4,3.8v26.5H46.2v-45.3H57.5z"/>
		<path fill="#FFFFFF" d="M101.8,189.3v9.1c0,3.3-0.2,5.8-0.5,7.3c-0.3,1.6-1.1,3-2.2,4.4c-1.1,1.4-2.5,2.4-4.2,3
			c-1.7,0.6-3.7,1-5.9,1c-2.5,0-4.6-0.3-6.4-0.8c-1.7-0.6-3.1-1.4-4-2.5c-1-1.1-1.6-2.5-2.1-4c-0.4-1.6-0.6-3.9-0.6-7.1v-9.5
			c0-3.5,0.4-6.1,1.1-8.1c0.7-1.9,2.1-3.5,4-4.7c1.9-1.2,4.4-1.8,7.4-1.8c2.5,0,4.7,0.4,6.5,1.1s3.2,1.7,4.2,3c1,1.2,1.7,2.5,2,3.7
			C101.7,184.7,101.8,186.6,101.8,189.3z M90.5,186.5c0-1.9-0.1-3.1-0.3-3.6c-0.2-0.5-0.6-0.7-1.3-0.7c-0.7,0-1.1,0.2-1.3,0.7
			c-0.2,0.5-0.3,1.7-0.3,3.6v16.8c0,1.8,0.1,2.9,0.3,3.4s0.7,0.8,1.3,0.8c0.7,0,1.1-0.2,1.3-0.7c0.2-0.5,0.3-1.5,0.3-3.1V186.5z"/>
		<path fill="#FFFFFF" d="M131.4,176.2v37.1h-11.5l0.2-3.1c-0.8,1.3-1.7,2.2-2.9,2.8s-2.5,0.9-4,0.9c-1.7,0-3.1-0.3-4.2-0.9
			c-1.1-0.6-1.9-1.4-2.5-2.4c-0.5-1-0.9-2-1-3.1c-0.1-1.1-0.2-3.2-0.2-6.4v-25h11.3v25.3c0,2.9,0.1,4.6,0.3,5.1
			c0.2,0.5,0.7,0.8,1.4,0.8c0.8,0,1.3-0.3,1.5-0.8c0.2-0.6,0.2-2.4,0.2-5.4v-25H131.4z"/>
		<path fill="#FFFFFF" d="M158.6,188.1h-10v-2c0-1.7-0.1-2.8-0.3-3.3c-0.2-0.5-0.7-0.7-1.5-0.7c-0.6,0-1.1,0.2-1.4,0.6
			c-0.3,0.4-0.5,1-0.5,1.9c0,1.1,0.1,2,0.2,2.5c0.2,0.5,0.6,1.1,1.4,1.7c0.8,0.6,2.4,1.6,4.9,2.8c3.3,1.6,5.4,3.1,6.5,4.5
			c1,1.4,1.5,3.5,1.5,6.2c0,3-0.4,5.3-1.2,6.8c-0.8,1.5-2.1,2.7-3.9,3.6c-1.8,0.8-4.1,1.2-6.6,1.2c-2.9,0-5.3-0.4-7.4-1.3
			c-2-0.9-3.4-2.1-4.2-3.6c-0.8-1.5-1.1-3.8-1.1-6.9v-1.8h10v2.4c0,2,0.1,3.3,0.4,3.9c0.3,0.6,0.8,0.9,1.5,0.9
			c0.8,0,1.4-0.2,1.7-0.6c0.3-0.4,0.5-1.2,0.5-2.5c0-1.8-0.2-2.9-0.6-3.3c-0.4-0.4-2.6-1.8-6.6-4c-3.3-1.9-5.3-3.6-6.1-5.1
			c-0.7-1.5-1.1-3.3-1.1-5.4c0-3,0.4-5.2,1.2-6.6c0.8-1.4,2.1-2.5,4-3.3c1.9-0.8,4.1-1.1,6.5-1.1c2.5,0,4.6,0.3,6.3,0.9
			c1.7,0.6,3,1.5,4,2.5c0.9,1,1.5,2,1.7,2.9c0.2,0.9,0.3,2.2,0.3,4.1V188.1z"/>
		<path fill="#FFFFFF" d="M174.4,171.3v5.8h3.1v5.9h-3.1v19.9c0,2.4,0.1,3.8,0.4,4.1c0.3,0.3,1.3,0.4,3.1,0.4v6h-4.6
			c-2.6,0-4.4-0.1-5.5-0.3c-1.1-0.2-2.1-0.7-2.9-1.5c-0.8-0.8-1.4-1.7-1.6-2.7c-0.2-1-0.3-3.3-0.3-7V183h-2.4v-5.9h2.4v-5.8H174.4z"
			/>
		<path fill="#FFFFFF" d="M205.5,189.3v9.1c0,3.3-0.2,5.8-0.5,7.3c-0.3,1.6-1.1,3-2.2,4.4c-1.1,1.4-2.5,2.4-4.2,3
			c-1.7,0.6-3.7,1-5.9,1c-2.5,0-4.6-0.3-6.4-0.8c-1.7-0.6-3.1-1.4-4-2.5c-1-1.1-1.6-2.5-2.1-4c-0.4-1.6-0.6-3.9-0.6-7.1v-9.5
			c0-3.5,0.4-6.1,1.1-8.1s2.1-3.5,4-4.7s4.4-1.8,7.4-1.8c2.5,0,4.7,0.4,6.5,1.1c1.8,0.8,3.2,1.7,4.2,3c1,1.2,1.7,2.5,2,3.7
			C205.3,184.7,205.5,186.6,205.5,189.3z M194.2,186.5c0-1.9-0.1-3.1-0.3-3.6c-0.2-0.5-0.6-0.7-1.3-0.7c-0.7,0-1.1,0.2-1.3,0.7
			c-0.2,0.5-0.3,1.7-0.3,3.6v16.8c0,1.8,0.1,2.9,0.3,3.4c0.2,0.5,0.7,0.8,1.3,0.8c0.7,0,1.1-0.2,1.3-0.7c0.2-0.5,0.3-1.5,0.3-3.1
			V186.5z"/>
		<path fill="#FFFFFF" d="M220.7,176.2l-0.2,3.4c0.8-1.4,1.8-2.4,3-3.1c1.2-0.7,2.6-1,4.1-1c1.9,0,3.5,0.5,4.8,1.4
			c1.2,0.9,2,2.1,2.4,3.5c0.4,1.4,0.5,3.7,0.5,7v26H224v-25.7c0-2.6-0.1-4.1-0.3-4.7c-0.2-0.6-0.6-0.8-1.4-0.8c-0.8,0-1.3,0.3-1.5,1
			c-0.2,0.6-0.3,2.4-0.3,5.2v25.1h-11.3v-37.1H220.7z"/>
	</g>
</g>
</svg>
