<svg xmlns="http://www.w3.org/2000/svg" viewBox="0 0 237 268" enable-background="new 0 0 237 268"><g fill="#fff"><path d="M80.3 142.2c6.3 0 11.8 3.1 15.1 7.9 3.3-3 7.6-4.9 12.4-4.9 8.2 0 15.2 5.2 17.5 12.7 7.9-5 14.2-22.9 12.9-37.9H108l17.3-28.8 6.6-10.7V33.3l9.2-19 1.5-3.1 1.5 3.1 9 19-.1.7v47.4l6.1 9.8 17.4 28.8h-30.2c-.1 8 .7 25.1 12 41.3 2.6-3.1 6.4-5 10.8-5 3.2 0 6.2 1.2 8.6 3 2.8-11.7 13.2-20.3 25.7-20.3 5.5 0 10.6 1.7 14.8 4.5 9.5-14.6 15.1-32 15.1-50.8 0-51.4-41.6-93-93-93s-93 41.6-93 93c0 21 7 40.4 18.8 56 3.4-3.9 8.5-6.5 14.2-6.5zM149 34.4l-7-15.5-7 15.5V42h14zM135 84h5v34h-5zM145 84h4v34h-4zM135 79h5V67h5v12h4V54h-14zM27.9 223.1v29.5c0 4-.1 6.6-.3 7.7-.2 1.2-.8 2.4-2 3.7-1.1 1.3-2.7 2.3-4.7 3s-4.5 1-7.5 1c-3.7 0-6.7-.6-9-1.9-2.3-1.3-3.4-3.7-3.5-7.4h11.3c0 1.7.6 2.5 1.9 2.5.9 0 1.5-.3 1.8-.8.3-.5.4-1.6.4-3.3v-2.9c-1 .9-2.1 1.6-3.2 2.1s-2.3.7-3.5.7c-2.1 0-3.8-.4-5.2-1.3-1.4-.8-2.3-2-2.8-3.3-.5-1.4-.8-3.3-.8-5.9v-13.9c0-3.6.7-6.3 2-7.9 1.3-1.6 3.3-2.4 6-2.4 1.5 0 2.8.3 4 .9 1.2.6 2.3 1.5 3.2 2.7l.8-2.9h11.1zm-11.8 10.2c0-1.8-.1-2.9-.3-3.4-.2-.5-.7-.7-1.3-.7-.7 0-1.2.3-1.4.8-.3.5-.4 1.6-.4 3.3v12.9c0 1.7.1 2.8.3 3.3.2.5.7.8 1.3.8.8 0 1.3-.3 1.5-.9.2-.6.3-2 .3-4.2v-11.9zM44 214.7v6.1H32v-6.1h12zm0 8.4v38.4H32v-38.4h12zM72.4 223.1l-5.5 38.4H51.7l-5.9-38.4h10.4l3.3 28c.3-2.1.7-7.1 1.3-15.1.3-4.5.7-8.8 1.1-13h10.5zM100.6 243H85.4v8.3c0 1.7.1 2.9.4 3.4.3.5.7.8 1.4.8.9 0 1.5-.3 1.8-1 .3-.7.4-2 .4-3.9v-5.1h11.1v2.8c0 2.4-.1 4.2-.4 5.5s-1 2.6-2.1 4.1c-1.1 1.4-2.5 2.5-4.2 3.3-1.7.7-3.8 1.1-6.3 1.1s-4.6-.4-6.5-1.1c-1.9-.7-3.4-1.7-4.4-2.9-1.1-1.2-1.8-2.6-2.2-4.1-.4-1.5-.6-3.7-.6-6.5v-11.2c0-3.4.5-6 1.4-7.9.9-1.9 2.4-3.4 4.5-4.5 2.1-1 4.4-1.5 7.1-1.5 3.3 0 6 .6 8.1 1.9 2.1 1.2 3.6 2.9 4.5 4.9.9 2.1 1.3 4.9 1.3 8.7v4.9zm-11.7-6.3v-2.8c0-2-.1-3.3-.3-3.8-.2-.6-.6-.9-1.3-.9-.8 0-1.3.2-1.5.7-.2.5-.3 1.8-.3 4v2.8h3.4zM130.2 237.6h-11v-4.4c0-1.5-.1-2.6-.4-3.1-.3-.5-.7-.8-1.4-.8s-1.1.2-1.4.7c-.2.5-.3 1.6-.3 3.2v18.1c0 1.4.2 2.4.5 3.1.3.7.9 1 1.5 1 .8 0 1.3-.4 1.6-1.1.3-.7.4-2.1.4-4v-4.6h10.4c0 3.1-.1 5.4-.3 6.9-.2 1.5-.8 3.1-1.9 4.7-1.1 1.6-2.5 2.8-4.3 3.6-1.8.8-3.9 1.2-6.5 1.2-3.3 0-5.9-.6-7.8-1.7-1.9-1.1-3.3-2.7-4.1-4.7-.8-2-1.2-4.9-1.2-8.7v-10.9c0-3.3.3-5.7 1-7.4.7-1.7 2.1-3.1 4.2-4.4 2.1-1.3 4.7-2 7.8-2 3 0 5.6.6 7.8 1.9 2.2 1.3 3.6 2.9 4.3 4.9.7 2.1 1.1 4.9 1.1 8.5zM144.1 238h-11v-2.6c0-3 .3-5.3 1-6.9.7-1.6 2.1-3 4.1-4.3 2.1-1.2 4.7-1.9 8-1.9 4 0 6.9.7 8.9 2.1 2 1.4 3.2 3.1 3.6 5.1.4 2 .6 6.2.6 12.6v19.3h-11.4V258c-.7 1.4-1.6 2.4-2.8 3.1-1.1.7-2.5 1-4 1-2 0-3.9-.6-5.6-1.7-1.7-1.1-2.6-3.7-2.6-7.5v-3.2c0-2.9.5-4.8 1.4-5.9.9-1 3.2-2.3 6.7-3.6 3.8-1.5 5.9-2.5 6.2-3 .3-.5.4-1.6.4-3.2 0-2-.1-3.3-.4-3.9-.3-.6-.8-.9-1.5-.9-.8 0-1.3.3-1.5.8-.2.5-.3 1.8-.3 4v4zm3.7 5.2c-1.9 1.4-3 2.5-3.3 3.4-.3.9-.4 2.3-.4 4 0 2 .1 3.3.4 3.8.3.6.8.9 1.5.9s1.2-.2 1.4-.7c.2-.5.3-1.6.3-3.6v-7.8zM175 223.1l-.2 3.6c.9-1.4 2-2.5 3.2-3.3 1.3-.7 2.7-1.1 4.3-1.1 3.1 0 5.6 1.4 7.4 4.3 1-1.4 2.1-2.5 3.3-3.3 1.2-.7 2.6-1.1 4.1-1.1 2 0 3.6.5 4.9 1.4 1.3 1 2.1 2.1 2.5 3.5.4 1.4.5 3.7.5 6.8v27.3h-11.3v-25c0-3.3-.1-5.3-.3-6.1s-.7-1.2-1.5-1.2-1.4.4-1.6 1.2c-.2.8-.4 2.8-.4 6.1v25h-11.3v-24.4c0-3.8-.1-6-.3-6.8-.2-.8-.7-1.1-1.5-1.1-.5 0-1 .2-1.3.6-.4.4-.6.9-.6 1.4 0 .6-.1 1.8-.1 3.6v26.6h-11.3v-38.4H175zM221 223.1l-.2 3.4c1-1.4 2.2-2.4 3.4-3.1 1.3-.7 2.6-1 4.1-1 1.8 0 3.4.5 4.7 1.5 1.3 1 2.1 2.1 2.5 3.4.3 1.3.5 3.4.5 6.5V250c0 3.5-.2 6-.6 7.4-.4 1.5-1.3 2.6-2.5 3.5s-2.8 1.3-4.6 1.3c-1.4 0-2.8-.3-4-1-1.2-.7-2.4-1.7-3.4-3v8.8h-11.7v-43.8H221zm3.3 11.2c0-2.4-.1-3.8-.3-4.3-.2-.5-.7-.8-1.4-.8-.8 0-1.3.3-1.5.9-.2.6-.3 2-.3 4.2v15.9c0 2.3.1 3.8.3 4.3.2.6.7.9 1.5.9s1.2-.3 1.4-.8c.2-.5.3-1.8.3-3.9v-16.4zM57.5 168.1v10.2c1-.9 2-1.6 3.1-2 1.1-.4 2.3-.7 3.6-.7 2 0 3.7.5 5.1 1.5 1.4 1 2.2 2.2 2.5 3.5.3 1.3.5 3.7.5 7.2v25.6H61.1v-26.1c0-2.2-.1-3.6-.3-4.2-.2-.6-.7-.9-1.4-.9s-1.2.3-1.4 1c-.2.6-.4 1.9-.4 3.8v26.5H46.2v-45.3h11.3zM101.8 189.3v9.1c0 3.3-.2 5.8-.5 7.3-.3 1.6-1.1 3-2.2 4.4-1.1 1.4-2.5 2.4-4.2 3-1.7.6-3.7 1-5.9 1-2.5 0-4.6-.3-6.4-.8-1.7-.6-3.1-1.4-4-2.5-1-1.1-1.6-2.5-2.1-4-.4-1.6-.6-3.9-.6-7.1v-9.5c0-3.5.4-6.1 1.1-8.1.7-1.9 2.1-3.5 4-4.7 1.9-1.2 4.4-1.8 7.4-1.8 2.5 0 4.7.4 6.5 1.1s3.2 1.7 4.2 3c1 1.2 1.7 2.5 2 3.7.6 1.3.7 3.2.7 5.9zm-11.3-2.8c0-1.9-.1-3.1-.3-3.6-.2-.5-.6-.7-1.3-.7-.7 0-1.1.2-1.3.7-.2.5-.3 1.7-.3 3.6v16.8c0 1.8.1 2.9.3 3.4s.7.8 1.3.8c.7 0 1.1-.2 1.3-.7.2-.5.3-1.5.3-3.1v-17.2zM131.4 176.2v37.1h-11.5l.2-3.1c-.8 1.3-1.7 2.2-2.9 2.8s-2.5.9-4 .9c-1.7 0-3.1-.3-4.2-.9-1.1-.6-1.9-1.4-2.5-2.4-.5-1-.9-2-1-3.1-.1-1.1-.2-3.2-.2-6.4v-25h11.3v25.3c0 2.9.1 4.6.3 5.1.2.5.7.8 1.4.8.8 0 1.3-.3 1.5-.8.2-.6.2-2.4.2-5.4v-25h11.4zM158.6 188.1h-10v-2c0-1.7-.1-2.8-.3-3.3-.2-.5-.7-.7-1.5-.7-.6 0-1.1.2-1.4.6-.3.4-.5 1-.5 1.9 0 1.1.1 2 .2 2.5.2.5.6 1.1 1.4 1.7.8.6 2.4 1.6 4.9 2.8 3.3 1.6 5.4 3.1 6.5 4.5 1 1.4 1.5 3.5 1.5 6.2 0 3-.4 5.3-1.2 6.8-.8 1.5-2.1 2.7-3.9 3.6-1.8.8-4.1 1.2-6.6 1.2-2.9 0-5.3-.4-7.4-1.3-2-.9-3.4-2.1-4.2-3.6-.8-1.5-1.1-3.8-1.1-6.9v-1.8h10v2.4c0 2 .1 3.3.4 3.9.3.6.8.9 1.5.9.8 0 1.4-.2 1.7-.6.3-.4.5-1.2.5-2.5 0-1.8-.2-2.9-.6-3.3-.4-.4-2.6-1.8-6.6-4-3.3-1.9-5.3-3.6-6.1-5.1-.7-1.5-1.1-3.3-1.1-5.4 0-3 .4-5.2 1.2-6.6.8-1.4 2.1-2.5 4-3.3 1.9-.8 4.1-1.1 6.5-1.1 2.5 0 4.6.3 6.3.9 1.7.6 3 1.5 4 2.5.9 1 1.5 2 1.7 2.9.2.9.3 2.2.3 4.1v2.1zM174.4 171.3v5.8h3.1v5.9h-3.1v19.9c0 2.4.1 3.8.4 4.1.3.3 1.3.4 3.1.4v6h-4.6c-2.6 0-4.4-.1-5.5-.3-1.1-.2-2.1-.7-2.9-1.5-.8-.8-1.4-1.7-1.6-2.7-.2-1-.3-3.3-.3-7V183h-2.4v-5.9h2.4v-5.8h11.4zM205.5 189.3v9.1c0 3.3-.2 5.8-.5 7.3-.3 1.6-1.1 3-2.2 4.4-1.1 1.4-2.5 2.4-4.2 3-1.7.6-3.7 1-5.9 1-2.5 0-4.6-.3-6.4-.8-1.7-.6-3.1-1.4-4-2.5-1-1.1-1.6-2.5-2.1-4-.4-1.6-.6-3.9-.6-7.1v-9.5c0-3.5.4-6.1 1.1-8.1s2.1-3.5 4-4.7 4.4-1.8 7.4-1.8c2.5 0 4.7.4 6.5 1.1 1.8.8 3.2 1.7 4.2 3 1 1.2 1.7 2.5 2 3.7.5 1.3.7 3.2.7 5.9zm-11.3-2.8c0-1.9-.1-3.1-.3-3.6-.2-.5-.6-.7-1.3-.7-.7 0-1.1.2-1.3.7-.2.5-.3 1.7-.3 3.6v16.8c0 1.8.1 2.9.3 3.4.2.5.7.8 1.3.8.7 0 1.1-.2 1.3-.7.2-.5.3-1.5.3-3.1v-17.2zM220.7 176.2l-.2 3.4c.8-1.4 1.8-2.4 3-3.1 1.2-.7 2.6-1 4.1-1 1.9 0 3.5.5 4.8 1.4 1.2.9 2 2.1 2.4 3.5.4 1.4.5 3.7.5 7v26H224v-25.7c0-2.6-.1-4.1-.3-4.7-.2-.6-.6-.8-1.4-.8-.8 0-1.3.3-1.5 1-.2.6-.3 2.4-.3 5.2v25.1h-11.3v-37.1h11.5z"/></g></svg>